<svg width="1740" height="456" viewBox="0 0 1740 456" fill="none" xmlns="http://www.w3.org/2000/svg">
<mask id="path-1-outside-1_3_36" maskUnits="userSpaceOnUse" x="7" y="88" width="1532" height="323" fill="black">
<rect fill="white" x="7" y="88" width="1532" height="323"/>
<path d="M120.3 138.6C110.5 138 103.3 139.4 98.7 142.8C94.3 146.2 91.3 152.3 89.7 161.1L89.4 162.6H117L109.5 205.2H81.9L60 330H8.4L30.3 205.2H11.7L19.2 162.6H37.8L38.7 157.8C42.5 137.2 51.2 121.6 64.8 111C78.6 100.2 96.9 94.8 119.7 94.8C123.3 94.8 126 94.9 127.8 95.1L120.3 138.6ZM190.905 332.4C176.505 332.4 163.705 329.5 152.505 323.7C141.305 317.9 132.605 309.7 126.405 299.1C120.405 288.5 117.405 276.2 117.405 262.2C117.405 243.2 121.905 225.9 130.905 210.3C139.905 194.7 152.305 182.5 168.105 173.7C183.905 164.7 201.505 160.2 220.905 160.2C235.305 160.2 248.105 163.2 259.305 169.2C270.705 175 279.505 183.2 285.705 193.8C291.905 204.4 295.005 216.7 295.005 230.7C295.005 249.9 290.405 267.3 281.205 282.9C272.205 298.3 259.705 310.4 243.705 319.2C227.905 328 210.305 332.4 190.905 332.4ZM198.105 288.3C206.505 288.3 214.005 285.8 220.605 280.8C227.405 275.6 232.605 269 236.205 261C240.005 252.8 241.905 244.3 241.905 235.5C241.905 225.5 239.205 217.8 233.805 212.4C228.405 207 221.605 204.3 213.405 204.3C204.805 204.3 197.205 206.9 190.605 212.1C184.205 217.1 179.205 223.7 175.605 231.9C172.005 240.1 170.205 248.7 170.205 257.7C170.205 267.5 172.805 275.1 178.005 280.5C183.205 285.7 189.905 288.3 198.105 288.3ZM384.921 332.4C370.521 332.4 357.721 329.5 346.521 323.7C335.321 317.9 326.621 309.7 320.421 299.1C314.421 288.5 311.421 276.2 311.421 262.2C311.421 243.2 315.921 225.9 324.921 210.3C333.921 194.7 346.321 182.5 362.121 173.7C377.921 164.7 395.521 160.2 414.921 160.2C429.321 160.2 442.121 163.2 453.321 169.2C464.721 175 473.521 183.2 479.721 193.8C485.921 204.4 489.021 216.7 489.021 230.7C489.021 249.9 484.421 267.3 475.221 282.9C466.221 298.3 453.721 310.4 437.721 319.2C421.921 328 404.321 332.4 384.921 332.4ZM392.121 288.3C400.521 288.3 408.021 285.8 414.621 280.8C421.421 275.6 426.621 269 430.221 261C434.021 252.8 435.921 244.3 435.921 235.5C435.921 225.5 433.221 217.8 427.821 212.4C422.421 207 415.621 204.3 407.421 204.3C398.821 204.3 391.221 206.9 384.621 212.1C378.221 217.1 373.221 223.7 369.621 231.9C366.021 240.1 364.221 248.7 364.221 257.7C364.221 267.5 366.821 275.1 372.021 280.5C377.221 285.7 383.921 288.3 392.121 288.3ZM572.037 272.4C571.837 273.4 571.737 274.7 571.737 276.3C571.737 279.9 572.737 282.5 574.737 284.1C576.937 285.7 580.437 286.5 585.237 286.5H603.537L595.737 330H569.637C536.037 330 519.237 315.9 519.237 287.7C519.237 283.5 519.737 278.2 520.737 271.8L532.737 205.2H512.337L519.837 162.6H540.237L547.437 121.8H598.737L591.537 162.6H625.137L617.637 205.2H584.037L572.037 272.4ZM703.812 186.3C710.212 178.5 718.212 172.2 727.812 167.4C737.612 162.6 748.412 160.2 760.212 160.2C778.212 160.2 792.712 166.1 803.712 177.9C814.912 189.7 820.512 205.7 820.512 225.9C820.512 232.1 819.912 238.8 818.712 246C815.712 263.2 809.812 278.4 801.012 291.6C792.212 304.6 781.612 314.7 769.212 321.9C756.812 328.9 743.712 332.4 729.912 332.4C718.312 332.4 708.512 330 700.512 325.2C692.512 320.4 686.612 314.2 682.812 306.6L664.512 409.8H613.212L656.712 162.6H708.012L703.812 186.3ZM766.812 246C767.412 242.6 767.712 239.5 767.712 236.7C767.712 226.7 764.812 218.9 759.012 213.3C753.412 207.7 746.212 204.9 737.412 204.9C727.212 204.9 717.912 208.6 709.512 216C701.112 223.4 695.712 233.5 693.312 246.3C692.712 249.9 692.412 253.2 692.412 256.2C692.412 266 695.212 273.7 700.812 279.3C706.412 284.9 713.612 287.7 722.412 287.7C732.612 287.7 741.912 284 750.312 276.6C758.912 269 764.412 258.8 766.812 246ZM909.225 192.9C917.025 182.9 925.925 175.1 935.925 169.5C946.125 163.7 956.725 160.8 967.725 160.8L958.125 215.1H944.025C931.225 215.1 921.125 217.9 913.725 223.5C906.325 228.9 901.425 238.5 899.025 252.3L885.225 330H833.925L863.325 162.6H914.625L909.225 192.9ZM1023.75 145.2C1015.75 145.2 1009.35 143.1 1004.55 138.9C999.945 134.5 997.645 129 997.645 122.4C997.645 113.4 1001.15 105.7 1008.15 99.3C1015.15 92.9 1023.65 89.7 1033.65 89.7C1041.65 89.7 1047.95 91.9 1052.55 96.3C1057.15 100.5 1059.45 106 1059.45 112.8C1059.45 121.6 1055.95 129.2 1048.95 135.6C1041.95 142 1033.55 145.2 1023.75 145.2ZM1045.95 162.6L1016.55 330H965.245L994.645 162.6H1045.95ZM1188.42 160.8C1205.22 160.8 1218.42 165.5 1228.02 174.9C1237.62 184.3 1242.42 197.4 1242.42 214.2C1242.42 219.8 1241.82 225.8 1240.62 232.2L1223.22 330H1172.22L1188.42 239.1C1189.02 235.7 1189.32 232.7 1189.32 230.1C1189.32 221.7 1186.92 215.2 1182.12 210.6C1177.52 206 1171.02 203.7 1162.62 203.7C1152.62 203.7 1144.22 206.8 1137.42 213C1130.62 219.2 1126.22 227.9 1124.22 239.1V237.6L1108.02 330H1056.72L1086.12 162.6H1137.42L1133.52 185.1C1140.12 177.7 1148.12 171.8 1157.52 167.4C1167.12 163 1177.42 160.8 1188.42 160.8ZM1331.47 272.4C1331.27 273.4 1331.17 274.7 1331.17 276.3C1331.17 279.9 1332.17 282.5 1334.17 284.1C1336.37 285.7 1339.87 286.5 1344.67 286.5H1362.97L1355.17 330H1329.07C1295.47 330 1278.67 315.9 1278.67 287.7C1278.67 283.5 1279.17 278.2 1280.17 271.8L1292.17 205.2H1271.77L1279.27 162.6H1299.67L1306.87 121.8H1358.17L1350.97 162.6H1384.57L1377.07 205.2H1343.47L1331.47 272.4ZM1456.35 332.4C1443.15 332.4 1431.25 330.3 1420.65 326.1C1410.25 321.9 1402.05 316.1 1396.05 308.7C1390.05 301.1 1387.05 292.4 1387.05 282.6C1387.05 281.2 1387.25 278.7 1387.65 275.1H1437.15C1436.75 281.3 1438.55 286.3 1442.55 290.1C1446.75 293.7 1452.65 295.5 1460.25 295.5C1466.65 295.5 1471.95 294.3 1476.15 291.9C1480.35 289.5 1482.45 286.1 1482.45 281.7C1482.45 277.5 1480.15 274.2 1475.55 271.8C1471.15 269.2 1463.75 266.1 1453.35 262.5C1442.55 258.9 1433.45 255.4 1426.05 252C1418.85 248.4 1412.65 243.3 1407.45 236.7C1402.25 230.1 1399.65 221.8 1399.65 211.8C1399.65 202 1402.55 193.2 1408.35 185.4C1414.15 177.4 1422.25 171.2 1432.65 166.8C1443.25 162.4 1455.45 160.2 1469.25 160.2C1483.05 160.2 1495.05 162.5 1505.25 167.1C1515.45 171.5 1523.35 177.7 1528.95 185.7C1534.55 193.7 1537.35 202.7 1537.35 212.7L1537.05 217.2H1490.55C1490.95 211.2 1489.15 206.4 1485.15 202.8C1481.15 199.2 1475.45 197.4 1468.05 197.4C1462.25 197.4 1457.45 198.6 1453.65 201C1450.05 203.4 1448.25 206.7 1448.25 210.9C1448.25 215.3 1450.65 219 1455.45 222C1460.45 224.8 1468.15 228 1478.55 231.6C1489.35 235.2 1498.25 238.8 1505.25 242.4C1512.45 245.8 1518.55 250.7 1523.55 257.1C1528.75 263.3 1531.35 271.1 1531.35 280.5C1531.35 291.3 1528.05 300.6 1521.45 308.4C1515.05 316.2 1506.15 322.2 1494.75 326.4C1483.55 330.4 1470.75 332.4 1456.35 332.4Z"/>
</mask>
<path d="M120.3 138.6C110.5 138 103.3 139.4 98.7 142.8C94.3 146.2 91.3 152.3 89.7 161.1L89.4 162.6H117L109.5 205.2H81.9L60 330H8.4L30.3 205.2H11.7L19.2 162.6H37.8L38.7 157.8C42.5 137.2 51.2 121.6 64.8 111C78.6 100.2 96.9 94.8 119.7 94.8C123.3 94.8 126 94.9 127.8 95.1L120.3 138.6ZM190.905 332.4C176.505 332.4 163.705 329.5 152.505 323.7C141.305 317.9 132.605 309.7 126.405 299.1C120.405 288.5 117.405 276.2 117.405 262.2C117.405 243.2 121.905 225.9 130.905 210.3C139.905 194.7 152.305 182.5 168.105 173.7C183.905 164.7 201.505 160.2 220.905 160.2C235.305 160.2 248.105 163.2 259.305 169.2C270.705 175 279.505 183.2 285.705 193.8C291.905 204.4 295.005 216.7 295.005 230.7C295.005 249.9 290.405 267.3 281.205 282.9C272.205 298.3 259.705 310.4 243.705 319.2C227.905 328 210.305 332.4 190.905 332.4ZM198.105 288.3C206.505 288.3 214.005 285.8 220.605 280.8C227.405 275.6 232.605 269 236.205 261C240.005 252.8 241.905 244.3 241.905 235.5C241.905 225.5 239.205 217.8 233.805 212.4C228.405 207 221.605 204.3 213.405 204.3C204.805 204.3 197.205 206.9 190.605 212.1C184.205 217.1 179.205 223.7 175.605 231.9C172.005 240.1 170.205 248.7 170.205 257.7C170.205 267.5 172.805 275.1 178.005 280.5C183.205 285.7 189.905 288.3 198.105 288.3ZM384.921 332.4C370.521 332.4 357.721 329.5 346.521 323.7C335.321 317.9 326.621 309.7 320.421 299.1C314.421 288.5 311.421 276.2 311.421 262.2C311.421 243.2 315.921 225.9 324.921 210.3C333.921 194.7 346.321 182.5 362.121 173.7C377.921 164.7 395.521 160.2 414.921 160.2C429.321 160.2 442.121 163.2 453.321 169.2C464.721 175 473.521 183.2 479.721 193.8C485.921 204.4 489.021 216.7 489.021 230.7C489.021 249.9 484.421 267.3 475.221 282.9C466.221 298.3 453.721 310.4 437.721 319.2C421.921 328 404.321 332.4 384.921 332.4ZM392.121 288.3C400.521 288.3 408.021 285.8 414.621 280.8C421.421 275.6 426.621 269 430.221 261C434.021 252.8 435.921 244.3 435.921 235.5C435.921 225.5 433.221 217.8 427.821 212.4C422.421 207 415.621 204.3 407.421 204.3C398.821 204.3 391.221 206.9 384.621 212.1C378.221 217.1 373.221 223.7 369.621 231.9C366.021 240.1 364.221 248.7 364.221 257.7C364.221 267.5 366.821 275.1 372.021 280.5C377.221 285.7 383.921 288.3 392.121 288.3ZM572.037 272.4C571.837 273.4 571.737 274.7 571.737 276.3C571.737 279.9 572.737 282.5 574.737 284.1C576.937 285.7 580.437 286.5 585.237 286.5H603.537L595.737 330H569.637C536.037 330 519.237 315.9 519.237 287.7C519.237 283.5 519.737 278.2 520.737 271.8L532.737 205.2H512.337L519.837 162.6H540.237L547.437 121.8H598.737L591.537 162.6H625.137L617.637 205.2H584.037L572.037 272.4ZM703.812 186.3C710.212 178.5 718.212 172.2 727.812 167.4C737.612 162.6 748.412 160.2 760.212 160.2C778.212 160.2 792.712 166.1 803.712 177.9C814.912 189.7 820.512 205.7 820.512 225.9C820.512 232.1 819.912 238.8 818.712 246C815.712 263.2 809.812 278.4 801.012 291.6C792.212 304.6 781.612 314.7 769.212 321.9C756.812 328.9 743.712 332.4 729.912 332.4C718.312 332.4 708.512 330 700.512 325.2C692.512 320.4 686.612 314.2 682.812 306.6L664.512 409.8H613.212L656.712 162.6H708.012L703.812 186.3ZM766.812 246C767.412 242.6 767.712 239.5 767.712 236.7C767.712 226.7 764.812 218.9 759.012 213.3C753.412 207.7 746.212 204.9 737.412 204.9C727.212 204.9 717.912 208.6 709.512 216C701.112 223.4 695.712 233.5 693.312 246.3C692.712 249.9 692.412 253.2 692.412 256.2C692.412 266 695.212 273.7 700.812 279.3C706.412 284.9 713.612 287.7 722.412 287.7C732.612 287.7 741.912 284 750.312 276.6C758.912 269 764.412 258.8 766.812 246ZM909.225 192.9C917.025 182.9 925.925 175.1 935.925 169.5C946.125 163.7 956.725 160.8 967.725 160.8L958.125 215.1H944.025C931.225 215.1 921.125 217.9 913.725 223.5C906.325 228.9 901.425 238.5 899.025 252.3L885.225 330H833.925L863.325 162.6H914.625L909.225 192.9ZM1023.75 145.2C1015.75 145.2 1009.35 143.1 1004.55 138.9C999.945 134.5 997.645 129 997.645 122.4C997.645 113.4 1001.15 105.7 1008.15 99.3C1015.15 92.9 1023.65 89.7 1033.65 89.7C1041.65 89.7 1047.95 91.9 1052.55 96.3C1057.15 100.5 1059.45 106 1059.45 112.8C1059.45 121.6 1055.95 129.2 1048.95 135.6C1041.95 142 1033.55 145.2 1023.75 145.2ZM1045.95 162.6L1016.55 330H965.245L994.645 162.6H1045.95ZM1188.42 160.8C1205.22 160.8 1218.42 165.5 1228.02 174.9C1237.62 184.3 1242.42 197.4 1242.42 214.2C1242.42 219.8 1241.82 225.8 1240.62 232.2L1223.22 330H1172.22L1188.42 239.1C1189.02 235.7 1189.32 232.7 1189.32 230.1C1189.32 221.7 1186.92 215.2 1182.12 210.6C1177.52 206 1171.02 203.7 1162.62 203.7C1152.62 203.7 1144.22 206.8 1137.42 213C1130.62 219.2 1126.22 227.9 1124.22 239.1V237.6L1108.02 330H1056.72L1086.12 162.6H1137.42L1133.52 185.1C1140.12 177.7 1148.12 171.8 1157.52 167.4C1167.12 163 1177.42 160.8 1188.42 160.8ZM1331.47 272.4C1331.27 273.4 1331.17 274.7 1331.17 276.3C1331.17 279.9 1332.17 282.5 1334.17 284.1C1336.37 285.7 1339.87 286.5 1344.67 286.5H1362.97L1355.17 330H1329.07C1295.47 330 1278.67 315.9 1278.67 287.7C1278.67 283.5 1279.17 278.2 1280.17 271.8L1292.17 205.2H1271.77L1279.27 162.6H1299.67L1306.87 121.8H1358.17L1350.97 162.6H1384.57L1377.07 205.2H1343.47L1331.47 272.4ZM1456.35 332.4C1443.15 332.4 1431.25 330.3 1420.65 326.1C1410.25 321.9 1402.05 316.1 1396.05 308.7C1390.05 301.1 1387.05 292.4 1387.05 282.6C1387.05 281.2 1387.25 278.7 1387.65 275.1H1437.15C1436.75 281.3 1438.55 286.3 1442.55 290.1C1446.75 293.7 1452.65 295.5 1460.25 295.5C1466.65 295.5 1471.95 294.3 1476.15 291.9C1480.35 289.5 1482.45 286.1 1482.45 281.7C1482.45 277.5 1480.15 274.2 1475.55 271.8C1471.15 269.2 1463.75 266.1 1453.35 262.5C1442.55 258.9 1433.45 255.4 1426.05 252C1418.85 248.4 1412.65 243.3 1407.45 236.7C1402.25 230.1 1399.65 221.8 1399.65 211.8C1399.65 202 1402.55 193.2 1408.35 185.4C1414.15 177.4 1422.25 171.2 1432.65 166.8C1443.25 162.4 1455.45 160.2 1469.25 160.2C1483.05 160.2 1495.05 162.5 1505.25 167.1C1515.45 171.5 1523.35 177.7 1528.95 185.7C1534.55 193.7 1537.35 202.7 1537.35 212.7L1537.05 217.2H1490.55C1490.95 211.2 1489.15 206.4 1485.15 202.8C1481.15 199.2 1475.45 197.4 1468.05 197.4C1462.25 197.4 1457.45 198.6 1453.65 201C1450.05 203.4 1448.25 206.7 1448.25 210.9C1448.25 215.3 1450.65 219 1455.45 222C1460.45 224.8 1468.15 228 1478.55 231.6C1489.35 235.2 1498.25 238.8 1505.25 242.4C1512.45 245.8 1518.55 250.7 1523.55 257.1C1528.75 263.3 1531.35 271.1 1531.35 280.5C1531.35 291.3 1528.05 300.6 1521.45 308.4C1515.05 316.2 1506.15 322.2 1494.75 326.4C1483.55 330.4 1470.75 332.4 1456.35 332.4Z" fill="#0297FE"/>
<path d="M120.3 138.6L120.239 139.598L121.133 139.653L121.285 138.77L120.3 138.6ZM98.7 142.8L98.1056 141.996L98.097 142.002L98.0886 142.009L98.7 142.8ZM89.7 161.1L90.6806 161.296L90.6823 161.288L90.6839 161.279L89.7 161.1ZM89.4 162.6L88.4194 162.404L88.1802 163.6H89.4V162.6ZM117 162.6L117.985 162.773L118.191 161.6H117V162.6ZM109.5 205.2V206.2H110.339L110.485 205.373L109.5 205.2ZM81.9 205.2V204.2H81.0602L80.9151 205.027L81.9 205.2ZM60 330V331H60.8398L60.985 330.173L60 330ZM8.4 330L7.41505 329.827L7.20924 331H8.4V330ZM30.3 205.2L31.285 205.373L31.4908 204.2H30.3V205.2ZM11.7 205.2L10.7151 205.027L10.5086 206.2H11.7V205.2ZM19.2 162.6V161.6H18.3607L18.2151 162.427L19.2 162.6ZM37.8 162.6V163.6H38.6299L38.7829 162.784L37.8 162.6ZM38.7 157.8L39.6829 157.984L39.6834 157.981L38.7 157.8ZM64.8 111L65.4147 111.789L65.4163 111.788L64.8 111ZM127.8 95.1L128.785 95.2699L128.966 94.2234L127.91 94.1061L127.8 95.1ZM120.3 138.6L120.361 137.602C110.48 136.997 102.989 138.386 98.1056 141.996L98.7 142.8L99.2944 143.604C103.611 140.414 110.52 139.003 120.239 139.598L120.3 138.6ZM98.7 142.8L98.0886 142.009C93.4039 145.629 90.3349 152.018 88.7161 160.921L89.7 161.1L90.6839 161.279C92.2651 152.582 95.1961 146.771 99.3115 143.591L98.7 142.8ZM89.7 161.1L88.7194 160.904L88.4194 162.404L89.4 162.6L90.3806 162.796L90.6806 161.296L89.7 161.1ZM89.4 162.6V163.6H117V162.6V161.6H89.4V162.6ZM117 162.6L116.015 162.427L108.515 205.027L109.5 205.2L110.485 205.373L117.985 162.773L117 162.6ZM109.5 205.2V204.2H81.9V205.2V206.2H109.5V205.2ZM81.9 205.2L80.9151 205.027L59.0151 329.827L60 330L60.985 330.173L82.8849 205.373L81.9 205.2ZM60 330V329H8.4V330V331H60V330ZM8.4 330L9.38495 330.173L31.285 205.373L30.3 205.2L29.3151 205.027L7.41505 329.827L8.4 330ZM30.3 205.2V204.2H11.7V205.2V206.2H30.3V205.2ZM11.7 205.2L12.6849 205.373L20.1849 162.773L19.2 162.6L18.2151 162.427L10.7151 205.027L11.7 205.2ZM19.2 162.6V163.6H37.8V162.6V161.6H19.2V162.6ZM37.8 162.6L38.7829 162.784L39.6829 157.984L38.7 157.8L37.7171 157.616L36.8171 162.416L37.8 162.6ZM38.7 157.8L39.6834 157.981C43.449 137.568 52.0473 122.207 65.4147 111.789L64.8 111L64.1853 110.211C50.3527 120.992 41.551 136.832 37.7166 157.619L38.7 157.8ZM64.8 111L65.4163 111.788C78.9936 101.162 97.0557 95.8 119.7 95.8V94.8V93.8C96.7443 93.8 78.2064 99.2382 64.1837 110.212L64.8 111ZM119.7 94.8V95.8C123.292 95.8 125.947 95.9002 127.69 96.0939L127.8 95.1L127.91 94.1061C126.053 93.8998 123.308 93.8 119.7 93.8V94.8ZM127.8 95.1L126.815 94.9301L119.315 138.43L120.3 138.6L121.285 138.77L128.785 95.2699L127.8 95.1ZM152.505 323.7L152.965 322.812V322.812L152.505 323.7ZM126.405 299.1L125.535 299.593L125.539 299.599L125.542 299.605L126.405 299.1ZM130.905 210.3L130.039 209.8V209.8L130.905 210.3ZM168.105 173.7L168.592 174.574L168.6 174.569L168.105 173.7ZM259.305 169.2L258.833 170.081L258.843 170.086L258.852 170.091L259.305 169.2ZM281.205 282.9L280.344 282.392L280.342 282.395L281.205 282.9ZM243.705 319.2L243.224 318.324L243.219 318.326L243.705 319.2ZM220.605 280.8L221.209 281.597L221.213 281.594L220.605 280.8ZM236.205 261L235.298 260.58L235.294 260.59L236.205 261ZM233.805 212.4L233.098 213.107V213.107L233.805 212.4ZM190.605 212.1L191.221 212.888L191.224 212.885L190.605 212.1ZM175.605 231.9L174.69 231.498V231.498L175.605 231.9ZM178.005 280.5L177.285 281.194L177.292 281.2L177.298 281.207L178.005 280.5ZM190.905 332.4V331.4C176.643 331.4 164.004 328.529 152.965 322.812L152.505 323.7L152.046 324.588C163.407 330.471 176.368 333.4 190.905 333.4V332.4ZM152.505 323.7L152.965 322.812C141.928 317.096 133.37 309.027 127.269 298.595L126.405 299.1L125.542 299.605C131.84 310.373 140.682 318.703 152.046 324.588L152.505 323.7ZM126.405 299.1L127.276 298.607C121.373 288.179 118.405 276.053 118.405 262.2H117.405H116.405C116.405 276.347 119.438 288.821 125.535 299.593L126.405 299.1ZM117.405 262.2H118.405C118.405 243.365 122.864 226.239 131.772 210.8L130.905 210.3L130.039 209.8C120.947 225.561 116.405 243.035 116.405 262.2H117.405ZM130.905 210.3L131.772 210.8C140.681 195.357 152.949 183.286 168.592 174.574L168.105 173.7L167.619 172.826C151.662 181.714 139.13 194.043 130.039 209.8L130.905 210.3ZM168.105 173.7L168.6 174.569C184.24 165.661 201.667 161.2 220.905 161.2V160.2V159.2C201.344 159.2 183.571 163.739 167.611 172.831L168.105 173.7ZM220.905 160.2V161.2C235.163 161.2 247.797 164.169 258.833 170.081L259.305 169.2L259.778 168.319C248.414 162.231 235.448 159.2 220.905 159.2V160.2ZM259.305 169.2L258.852 170.091C270.089 175.808 278.743 183.877 284.842 194.305L285.705 193.8L286.569 193.295C280.268 182.523 271.322 174.192 259.759 168.309L259.305 169.2ZM285.705 193.8L284.842 194.305C290.941 204.731 294.005 216.852 294.005 230.7H295.005H296.005C296.005 216.548 292.87 204.069 286.569 193.295L285.705 193.8ZM295.005 230.7H294.005C294.005 249.732 289.448 266.955 280.344 282.392L281.205 282.9L282.067 283.408C291.363 267.645 296.005 250.068 296.005 230.7H295.005ZM281.205 282.9L280.342 282.395C271.436 297.635 259.069 309.609 243.224 318.324L243.705 319.2L244.187 320.076C260.342 311.191 272.975 298.965 282.069 283.405L281.205 282.9ZM243.705 319.2L243.219 318.326C227.578 327.038 210.148 331.4 190.905 331.4V332.4V333.4C210.463 333.4 228.232 328.962 244.192 320.074L243.705 319.2ZM198.105 288.3V289.3C206.72 289.3 214.433 286.731 221.209 281.597L220.605 280.8L220.002 280.003C213.578 284.869 206.291 287.3 198.105 287.3V288.3ZM220.605 280.8L221.213 281.594C228.148 276.291 233.451 269.558 237.117 261.41L236.205 261L235.294 260.59C231.76 268.442 226.663 274.909 219.998 280.006L220.605 280.8ZM236.205 261L237.113 261.42C240.972 253.092 242.905 244.449 242.905 235.5H241.905H240.905C240.905 244.151 239.039 252.508 235.298 260.58L236.205 261ZM241.905 235.5H242.905C242.905 225.32 240.153 217.333 234.513 211.693L233.805 212.4L233.098 213.107C238.258 218.267 240.905 225.68 240.905 235.5H241.905ZM233.805 212.4L234.513 211.693C228.91 206.091 221.849 203.3 213.405 203.3V204.3V205.3C221.362 205.3 227.901 207.909 233.098 213.107L233.805 212.4ZM213.405 204.3V203.3C204.587 203.3 196.767 205.972 189.987 211.315L190.605 212.1L191.224 212.885C197.644 207.828 205.024 205.3 213.405 205.3V204.3ZM190.605 212.1L189.99 211.312C183.446 216.424 178.349 223.162 174.69 231.498L175.605 231.9L176.521 232.302C180.062 224.238 184.965 217.776 191.221 212.888L190.605 212.1ZM175.605 231.9L174.69 231.498C171.034 239.825 169.205 248.562 169.205 257.7H170.205H171.205C171.205 248.838 172.977 240.375 176.521 232.302L175.605 231.9ZM170.205 257.7H169.205C169.205 267.676 171.856 275.555 177.285 281.194L178.005 280.5L178.726 279.806C173.755 274.645 171.205 267.324 171.205 257.7H170.205ZM178.005 280.5L177.298 281.207C182.708 286.617 189.674 289.3 198.105 289.3V288.3V287.3C190.137 287.3 183.703 284.783 178.713 279.793L178.005 280.5ZM346.521 323.7L346.981 322.812V322.812L346.521 323.7ZM320.421 299.1L319.551 299.593L319.554 299.599L319.558 299.605L320.421 299.1ZM324.921 210.3L324.055 209.8V209.8L324.921 210.3ZM362.121 173.7L362.608 174.574L362.616 174.569L362.121 173.7ZM453.321 169.2L452.849 170.081L452.858 170.086L452.868 170.091L453.321 169.2ZM475.221 282.9L474.36 282.392L474.358 282.395L475.221 282.9ZM437.721 319.2L437.239 318.324L437.235 318.326L437.721 319.2ZM414.621 280.8L415.225 281.597L415.229 281.594L414.621 280.8ZM430.221 261L429.314 260.58L429.309 260.59L430.221 261ZM427.821 212.4L427.114 213.107V213.107L427.821 212.4ZM384.621 212.1L385.237 212.888L385.24 212.885L384.621 212.1ZM369.621 231.9L368.705 231.498V231.498L369.621 231.9ZM372.021 280.5L371.301 281.194L371.307 281.2L371.314 281.207L372.021 280.5ZM384.921 332.4V331.4C370.658 331.4 358.02 328.529 346.981 322.812L346.521 323.7L346.061 324.588C357.422 330.471 370.384 333.4 384.921 333.4V332.4ZM346.521 323.7L346.981 322.812C335.944 317.096 327.386 309.027 321.284 298.595L320.421 299.1L319.558 299.605C325.856 310.373 334.698 318.703 346.061 324.588L346.521 323.7ZM320.421 299.1L321.291 298.607C315.388 288.179 312.421 276.053 312.421 262.2H311.421H310.421C310.421 276.347 313.454 288.821 319.551 299.593L320.421 299.1ZM311.421 262.2H312.421C312.421 243.365 316.88 226.239 325.787 210.8L324.921 210.3L324.055 209.8C314.962 225.561 310.421 243.035 310.421 262.2H311.421ZM324.921 210.3L325.787 210.8C334.697 195.357 346.965 183.286 362.608 174.574L362.121 173.7L361.635 172.826C345.677 181.714 333.146 194.043 324.055 209.8L324.921 210.3ZM362.121 173.7L362.616 174.569C378.255 165.661 395.683 161.2 414.921 161.2V160.2V159.2C395.36 159.2 377.587 163.739 361.626 172.831L362.121 173.7ZM414.921 160.2V161.2C429.179 161.2 441.813 164.169 452.849 170.081L453.321 169.2L453.793 168.319C442.43 162.231 429.464 159.2 414.921 159.2V160.2ZM453.321 169.2L452.868 170.091C464.104 175.808 472.759 183.877 478.858 194.305L479.721 193.8L480.584 193.295C474.283 182.523 465.338 174.192 453.775 168.309L453.321 169.2ZM479.721 193.8L478.858 194.305C484.956 204.731 488.021 216.852 488.021 230.7H489.021H490.021C490.021 216.548 486.886 204.069 480.584 193.295L479.721 193.8ZM489.021 230.7H488.021C488.021 249.732 483.463 266.955 474.36 282.392L475.221 282.9L476.082 283.408C485.379 267.645 490.021 250.068 490.021 230.7H489.021ZM475.221 282.9L474.358 282.395C465.451 297.635 453.085 309.609 437.239 318.324L437.721 319.2L438.203 320.076C454.357 311.191 466.991 298.965 476.084 283.405L475.221 282.9ZM437.721 319.2L437.235 318.326C421.594 327.038 404.164 331.4 384.921 331.4V332.4V333.4C404.479 333.4 422.248 328.962 438.208 320.074L437.721 319.2ZM392.121 288.3V289.3C400.736 289.3 408.448 286.731 415.225 281.597L414.621 280.8L414.017 280.003C407.594 284.869 400.306 287.3 392.121 287.3V288.3ZM414.621 280.8L415.229 281.594C422.164 276.291 427.467 269.558 431.133 261.41L430.221 261L429.309 260.59C425.775 268.442 420.679 274.909 414.014 280.006L414.621 280.8ZM430.221 261L431.128 261.42C434.988 253.092 436.921 244.449 436.921 235.5H435.921H434.921C434.921 244.151 433.054 252.508 429.314 260.58L430.221 261ZM435.921 235.5H436.921C436.921 225.32 434.169 217.333 428.528 211.693L427.821 212.4L427.114 213.107C432.274 218.267 434.921 225.68 434.921 235.5H435.921ZM427.821 212.4L428.528 211.693C422.926 206.091 415.865 203.3 407.421 203.3V204.3V205.3C415.378 205.3 421.916 207.909 427.114 213.107L427.821 212.4ZM407.421 204.3V203.3C398.602 203.3 390.783 205.972 384.002 211.315L384.621 212.1L385.24 212.885C391.659 207.828 399.04 205.3 407.421 205.3V204.3ZM384.621 212.1L384.005 211.312C377.462 216.424 372.365 223.162 368.705 231.498L369.621 231.9L370.537 232.302C374.077 224.238 378.98 217.776 385.237 212.888L384.621 212.1ZM369.621 231.9L368.705 231.498C365.05 239.825 363.221 248.562 363.221 257.7H364.221H365.221C365.221 248.838 366.993 240.375 370.537 232.302L369.621 231.9ZM364.221 257.7H363.221C363.221 267.676 365.871 275.555 371.301 281.194L372.021 280.5L372.741 279.806C367.771 274.645 365.221 267.324 365.221 257.7H364.221ZM372.021 280.5L371.314 281.207C376.724 286.617 383.689 289.3 392.121 289.3V288.3V287.3C384.153 287.3 377.718 284.783 372.728 279.793L372.021 280.5ZM572.037 272.4L573.017 272.596L573.019 272.586L573.021 272.576L572.037 272.4ZM574.737 284.1L574.112 284.881L574.13 284.895L574.149 284.909L574.737 284.1ZM603.537 286.5L604.521 286.676L604.732 285.5H603.537V286.5ZM595.737 330V331H596.573L596.721 330.176L595.737 330ZM520.737 271.8L519.753 271.623L519.75 271.634L519.749 271.646L520.737 271.8ZM532.737 205.2L533.721 205.377L533.933 204.2H532.737V205.2ZM512.337 205.2L511.352 205.027L511.145 206.2H512.337V205.2ZM519.837 162.6V161.6H518.997L518.852 162.427L519.837 162.6ZM540.237 162.6V163.6H541.076L541.221 162.774L540.237 162.6ZM547.437 121.8V120.8H546.598L546.452 121.626L547.437 121.8ZM598.737 121.8L599.721 121.974L599.929 120.8H598.737V121.8ZM591.537 162.6L590.552 162.426L590.345 163.6H591.537V162.6ZM625.137 162.6L626.122 162.773L626.328 161.6H625.137V162.6ZM617.637 205.2V206.2H618.476L618.622 205.373L617.637 205.2ZM584.037 205.2V204.2H583.199L583.052 205.024L584.037 205.2ZM572.037 272.4L571.056 272.204C570.838 273.294 570.737 274.667 570.737 276.3H571.737H572.737C572.737 274.733 572.835 273.506 573.017 272.596L572.037 272.4ZM571.737 276.3H570.737C570.737 280.074 571.789 283.023 574.112 284.881L574.737 284.1L575.361 283.319C573.684 281.977 572.737 279.726 572.737 276.3H571.737ZM574.737 284.1L574.149 284.909C576.607 286.697 580.368 287.5 585.237 287.5V286.5V285.5C580.505 285.5 577.266 284.703 575.325 283.291L574.737 284.1ZM585.237 286.5V287.5H603.537V286.5V285.5H585.237V286.5ZM603.537 286.5L602.552 286.323L594.752 329.824L595.737 330L596.721 330.176L604.521 286.676L603.537 286.5ZM595.737 330V329H569.637V330V331H595.737V330ZM569.637 330V329C552.952 329 540.625 325.496 532.48 318.659C524.367 311.851 520.237 301.595 520.237 287.7H519.237H518.237C518.237 302.005 522.506 312.899 531.194 320.191C539.848 327.454 552.721 331 569.637 331V330ZM519.237 287.7H520.237C520.237 283.571 520.729 278.328 521.725 271.954L520.737 271.8L519.749 271.646C518.745 278.072 518.237 283.429 518.237 287.7H519.237ZM520.737 271.8L521.721 271.977L533.721 205.377L532.737 205.2L531.753 205.023L519.753 271.623L520.737 271.8ZM532.737 205.2V204.2H512.337V205.2V206.2H532.737V205.2ZM512.337 205.2L513.322 205.373L520.822 162.773L519.837 162.6L518.852 162.427L511.352 205.027L512.337 205.2ZM519.837 162.6V163.6H540.237V162.6V161.6H519.837V162.6ZM540.237 162.6L541.221 162.774L548.422 121.974L547.437 121.8L546.452 121.626L539.252 162.426L540.237 162.6ZM547.437 121.8V122.8H598.737V121.8V120.8H547.437V121.8ZM598.737 121.8L597.752 121.626L590.552 162.426L591.537 162.6L592.521 162.774L599.721 121.974L598.737 121.8ZM591.537 162.6V163.6H625.137V162.6V161.6H591.537V162.6ZM625.137 162.6L624.152 162.427L616.652 205.027L617.637 205.2L618.622 205.373L626.122 162.773L625.137 162.6ZM617.637 205.2V204.2H584.037V205.2V206.2H617.637V205.2ZM584.037 205.2L583.052 205.024L571.052 272.224L572.037 272.4L573.021 272.576L585.021 205.376L584.037 205.2ZM703.812 186.3L702.827 186.125L702.16 189.889L704.585 186.934L703.812 186.3ZM727.812 167.4L727.372 166.502L727.365 166.506L727.812 167.4ZM803.712 177.9L802.98 178.582L802.986 178.588L803.712 177.9ZM818.712 246L819.697 246.172L819.698 246.164L818.712 246ZM801.012 291.6L801.84 292.161L801.844 292.155L801.012 291.6ZM769.212 321.9L769.703 322.771L769.714 322.765L769.212 321.9ZM700.512 325.2L701.026 324.342V324.342L700.512 325.2ZM682.812 306.6L683.706 306.153L682.355 303.45L681.827 306.425L682.812 306.6ZM664.512 409.8V410.8H665.35L665.496 409.975L664.512 409.8ZM613.212 409.8L612.227 409.627L612.02 410.8H613.212V409.8ZM656.712 162.6V161.6H655.872L655.727 162.427L656.712 162.6ZM708.012 162.6L708.996 162.774L709.205 161.6H708.012V162.6ZM766.812 246L767.795 246.184L767.797 246.174L766.812 246ZM759.012 213.3L758.305 214.007L758.311 214.013L758.317 214.019L759.012 213.3ZM709.512 216L710.173 216.75V216.75L709.512 216ZM693.312 246.3L692.329 246.116L692.327 246.126L692.325 246.136L693.312 246.3ZM700.812 279.3L701.519 278.593V278.593L700.812 279.3ZM750.312 276.6L750.973 277.35L750.974 277.349L750.312 276.6ZM703.812 186.3L704.585 186.934C710.89 179.25 718.776 173.036 728.259 168.294L727.812 167.4L727.365 166.506C717.647 171.364 709.533 177.75 703.039 185.666L703.812 186.3ZM727.812 167.4L728.252 168.298C737.904 163.57 748.552 161.2 760.212 161.2V160.2V159.2C748.272 159.2 737.32 161.63 727.372 166.502L727.812 167.4ZM760.212 160.2V161.2C777.97 161.2 792.192 167.009 802.98 178.582L803.712 177.9L804.443 177.218C793.231 165.191 778.454 159.2 760.212 159.2V160.2ZM803.712 177.9L802.986 178.588C813.97 190.16 819.512 205.891 819.512 225.9H820.512H821.512C821.512 205.509 815.854 189.24 804.437 177.212L803.712 177.9ZM820.512 225.9H819.512C819.512 232.036 818.918 238.681 817.725 245.836L818.712 246L819.698 246.164C820.906 238.919 821.512 232.164 821.512 225.9H820.512ZM818.712 246L817.727 245.828C814.748 262.905 808.895 277.972 800.18 291.045L801.012 291.6L801.844 292.155C810.728 278.828 816.675 263.495 819.697 246.172L818.712 246ZM801.012 291.6L800.184 291.039C791.46 303.927 780.967 313.918 768.71 321.035L769.212 321.9L769.714 322.765C782.256 315.482 792.964 305.273 801.84 292.161L801.012 291.6ZM769.212 321.9L768.72 321.029C756.465 327.947 743.534 331.4 729.912 331.4V332.4V333.4C743.89 333.4 757.158 329.853 769.703 322.771L769.212 321.9ZM729.912 332.4V331.4C718.449 331.4 708.837 329.029 701.026 324.342L700.512 325.2L699.997 326.057C708.186 330.971 718.174 333.4 729.912 333.4V332.4ZM700.512 325.2L701.026 324.342C693.173 319.63 687.413 313.566 683.706 306.153L682.812 306.6L681.917 307.047C685.811 314.834 691.851 321.17 699.997 326.057L700.512 325.2ZM682.812 306.6L681.827 306.425L663.527 409.625L664.512 409.8L665.496 409.975L683.796 306.775L682.812 306.6ZM664.512 409.8V408.8H613.212V409.8V410.8H664.512V409.8ZM613.212 409.8L614.197 409.973L657.697 162.773L656.712 162.6L655.727 162.427L612.227 409.627L613.212 409.8ZM656.712 162.6V163.6H708.012V162.6V161.6H656.712V162.6ZM708.012 162.6L707.027 162.425L702.827 186.125L703.812 186.3L704.796 186.474L708.996 162.774L708.012 162.6ZM766.812 246L767.797 246.174C768.404 242.729 768.712 239.57 768.712 236.7H767.712H766.712C766.712 239.43 766.419 242.471 765.827 245.826L766.812 246ZM767.712 236.7H768.712C768.712 226.498 765.746 218.412 759.706 212.581L759.012 213.3L758.317 214.019C763.877 219.388 766.712 226.902 766.712 236.7H767.712ZM759.012 213.3L759.719 212.593C753.91 206.784 746.445 203.9 737.412 203.9V204.9V205.9C745.979 205.9 752.914 208.616 758.305 214.007L759.012 213.3ZM737.412 204.9V203.9C726.944 203.9 717.414 207.706 708.851 215.25L709.512 216L710.173 216.75C718.409 209.494 727.48 205.9 737.412 205.9V204.9ZM709.512 216L708.851 215.25C700.257 222.82 694.763 233.134 692.329 246.116L693.312 246.3L694.295 246.484C696.66 233.866 701.967 223.98 710.173 216.75L709.512 216ZM693.312 246.3L692.325 246.136C691.718 249.779 691.412 253.135 691.412 256.2H692.412H693.412C693.412 253.265 693.705 250.021 694.298 246.464L693.312 246.3ZM692.412 256.2H691.412C691.412 266.198 694.275 274.177 700.105 280.007L700.812 279.3L701.519 278.593C696.149 273.223 693.412 265.802 693.412 256.2H692.412ZM700.812 279.3L700.105 280.007C705.914 285.816 713.379 288.7 722.412 288.7V287.7V286.7C713.845 286.7 706.91 283.984 701.519 278.593L700.812 279.3ZM722.412 287.7V288.7C732.88 288.7 742.409 284.894 750.973 277.35L750.312 276.6L749.651 275.85C741.414 283.106 732.344 286.7 722.412 286.7V287.7ZM750.312 276.6L750.974 277.349C759.763 269.582 765.359 259.172 767.795 246.184L766.812 246L765.829 245.816C763.464 258.428 758.061 268.418 749.65 275.851L750.312 276.6ZM909.225 192.9L908.241 192.725L910.013 193.515L909.225 192.9ZM935.925 169.5L936.414 170.373L936.419 170.369L935.925 169.5ZM967.725 160.8L968.71 160.974L968.917 159.8H967.725V160.8ZM958.125 215.1V216.1H958.964L959.11 215.274L958.125 215.1ZM913.725 223.5L914.314 224.308L914.322 224.303L914.328 224.297L913.725 223.5ZM899.025 252.3L900.01 252.475L900.01 252.471L899.025 252.3ZM885.225 330V331H886.063L886.21 330.175L885.225 330ZM833.925 330L832.94 329.827L832.734 331H833.925V330ZM863.325 162.6V161.6H862.485L862.34 162.427L863.325 162.6ZM914.625 162.6L915.609 162.775L915.819 161.6H914.625V162.6ZM909.225 192.9L910.013 193.515C917.74 183.609 926.542 175.901 936.414 170.372L935.925 169.5L935.436 168.627C925.309 174.299 916.31 182.191 908.437 192.285L909.225 192.9ZM935.925 169.5L936.419 170.369C946.479 164.649 956.91 161.8 967.725 161.8V160.8V159.8C956.54 159.8 945.771 162.751 935.431 168.631L935.925 169.5ZM967.725 160.8L966.74 160.626L957.14 214.926L958.125 215.1L959.11 215.274L968.71 160.974L967.725 160.8ZM958.125 215.1V214.1H944.025V215.1V216.1H958.125V215.1ZM944.025 215.1V214.1C931.088 214.1 920.75 216.929 913.122 222.703L913.725 223.5L914.328 224.297C921.5 218.871 931.362 216.1 944.025 216.1V215.1ZM913.725 223.5L913.136 222.692C905.438 228.309 900.461 238.205 898.04 252.129L899.025 252.3L900.01 252.471C902.389 238.795 907.212 229.491 914.314 224.308L913.725 223.5ZM899.025 252.3L898.04 252.125L884.24 329.825L885.225 330L886.21 330.175L900.01 252.475L899.025 252.3ZM885.225 330V329H833.925V330V331H885.225V330ZM833.925 330L834.91 330.173L864.31 162.773L863.325 162.6L862.34 162.427L832.94 329.827L833.925 330ZM863.325 162.6V163.6H914.625V162.6V161.6H863.325V162.6ZM914.625 162.6L913.641 162.425L908.241 192.725L909.225 192.9L910.209 193.075L915.609 162.775L914.625 162.6ZM1004.55 138.9L1003.85 139.623L1003.87 139.638L1003.89 139.653L1004.55 138.9ZM1008.15 99.3L1008.82 100.038V100.038L1008.15 99.3ZM1052.55 96.3L1051.85 97.0226L1051.86 97.0307L1051.87 97.0385L1052.55 96.3ZM1048.95 135.6L1049.62 136.338V136.338L1048.95 135.6ZM1045.95 162.6L1046.93 162.773L1047.14 161.6H1045.95V162.6ZM1016.55 330V331H1017.39L1017.53 330.173L1016.55 330ZM965.245 330L964.26 329.827L964.054 331H965.245V330ZM994.645 162.6V161.6H993.806L993.66 162.427L994.645 162.6ZM1023.75 145.2V144.2C1015.92 144.2 1009.78 142.15 1005.2 138.147L1004.55 138.9L1003.89 139.653C1008.91 144.05 1015.57 146.2 1023.75 146.2V145.2ZM1004.55 138.9L1005.24 138.177C1000.84 133.974 998.645 128.738 998.645 122.4H997.645H996.645C996.645 129.262 999.049 135.026 1003.85 139.623L1004.55 138.9ZM997.645 122.4H998.645C998.645 113.697 1002.01 106.26 1008.82 100.038L1008.15 99.3L1007.47 98.562C1000.28 105.14 996.645 113.103 996.645 122.4H997.645ZM1008.15 99.3L1008.82 100.038C1015.63 93.8163 1023.88 90.7 1033.65 90.7V89.7V88.7C1023.41 88.7 1014.67 91.9837 1007.47 98.562L1008.15 99.3ZM1033.65 89.7V90.7C1041.46 90.7 1047.48 92.8434 1051.85 97.0226L1052.55 96.3L1053.24 95.5773C1048.41 90.9566 1041.83 88.7 1033.65 88.7V89.7ZM1052.55 96.3L1051.87 97.0385C1056.24 101.03 1058.45 106.252 1058.45 112.8H1059.45H1060.45C1060.45 105.748 1058.05 99.9695 1053.22 95.5615L1052.55 96.3ZM1059.45 112.8H1058.45C1058.45 121.296 1055.08 128.635 1048.27 134.862L1048.95 135.6L1049.62 136.338C1056.81 129.765 1060.45 121.904 1060.45 112.8H1059.45ZM1048.95 135.6L1048.27 134.862C1041.46 141.087 1033.3 144.2 1023.75 144.2V145.2V146.2C1033.79 146.2 1042.43 142.913 1049.62 136.338L1048.95 135.6ZM1045.95 162.6L1044.96 162.427L1015.56 329.827L1016.55 330L1017.53 330.173L1046.93 162.773L1045.95 162.6ZM1016.55 330V329H965.245V330V331H1016.55V330ZM965.245 330L966.23 330.173L995.63 162.773L994.645 162.6L993.66 162.427L964.26 329.827L965.245 330ZM994.645 162.6V163.6H1045.95V162.6V161.6H994.645V162.6ZM1228.02 174.9L1227.32 175.615V175.615L1228.02 174.9ZM1240.62 232.2L1239.64 232.016L1239.64 232.025L1240.62 232.2ZM1223.22 330V331H1224.06L1224.21 330.175L1223.22 330ZM1172.22 330L1171.24 329.825L1171.03 331H1172.22V330ZM1188.42 239.1L1189.41 239.275L1189.41 239.274L1188.42 239.1ZM1182.12 210.6L1181.41 211.307L1181.42 211.315L1181.43 211.322L1182.12 210.6ZM1137.42 213L1138.1 213.739V213.739L1137.42 213ZM1124.22 239.1H1123.22L1125.21 239.276L1124.22 239.1ZM1124.22 237.6H1125.22L1123.24 237.427L1124.22 237.6ZM1108.02 330V331H1108.86L1109.01 330.173L1108.02 330ZM1056.72 330L1055.74 329.827L1055.53 331H1056.72V330ZM1086.12 162.6V161.6H1085.28L1085.14 162.427L1086.12 162.6ZM1137.42 162.6L1138.41 162.771L1138.61 161.6H1137.42V162.6ZM1133.52 185.1L1132.54 184.929L1131.94 188.377L1134.27 185.766L1133.52 185.1ZM1157.52 167.4L1157.11 166.491L1157.1 166.494L1157.52 167.4ZM1188.42 160.8V161.8C1205.03 161.8 1217.95 166.441 1227.32 175.615L1228.02 174.9L1228.72 174.185C1218.89 164.559 1205.41 159.8 1188.42 159.8V160.8ZM1228.02 174.9L1227.32 175.615C1236.68 184.782 1241.42 197.598 1241.42 214.2H1242.42H1243.42C1243.42 197.202 1238.56 183.818 1228.72 174.185L1228.02 174.9ZM1242.42 214.2H1241.42C1241.42 219.729 1240.83 225.667 1239.64 232.016L1240.62 232.2L1241.6 232.384C1242.81 225.933 1243.42 219.871 1243.42 214.2H1242.42ZM1240.62 232.2L1239.64 232.025L1222.24 329.825L1223.22 330L1224.21 330.175L1241.61 232.375L1240.62 232.2ZM1223.22 330V329H1172.22V330V331H1223.22V330ZM1172.22 330L1173.21 330.175L1189.41 239.275L1188.42 239.1L1187.44 238.925L1171.24 329.825L1172.22 330ZM1188.42 239.1L1189.41 239.274C1190.01 235.834 1190.32 232.774 1190.32 230.1H1189.32H1188.32C1188.32 232.626 1188.03 235.566 1187.44 238.926L1188.42 239.1ZM1189.32 230.1H1190.32C1190.32 221.504 1187.86 214.713 1182.81 209.878L1182.12 210.6L1181.43 211.322C1185.98 215.686 1188.32 221.896 1188.32 230.1H1189.32ZM1182.12 210.6L1182.83 209.893C1177.99 205.055 1171.21 202.7 1162.62 202.7V203.7V204.7C1170.84 204.7 1177.05 206.945 1181.41 211.307L1182.12 210.6ZM1162.62 203.7V202.7C1152.4 202.7 1143.75 205.878 1136.75 212.261L1137.42 213L1138.1 213.739C1144.69 207.722 1152.85 204.7 1162.62 204.7V203.7ZM1137.42 213L1136.75 212.261C1129.75 218.642 1125.27 227.56 1123.24 238.924L1124.22 239.1L1125.21 239.276C1127.18 228.24 1131.49 219.758 1138.1 213.739L1137.42 213ZM1124.22 239.1H1125.22V237.6H1124.22H1123.22V239.1H1124.22ZM1124.22 237.6L1123.24 237.427L1107.04 329.827L1108.02 330L1109.01 330.173L1125.21 237.773L1124.22 237.6ZM1108.02 330V329H1056.72V330V331H1108.02V330ZM1056.72 330L1057.71 330.173L1087.11 162.773L1086.12 162.6L1085.14 162.427L1055.74 329.827L1056.72 330ZM1086.12 162.6V163.6H1137.42V162.6V161.6H1086.12V162.6ZM1137.42 162.6L1136.44 162.429L1132.54 184.929L1133.52 185.1L1134.51 185.271L1138.41 162.771L1137.42 162.6ZM1133.52 185.1L1134.27 185.766C1140.77 178.471 1148.66 172.651 1157.95 168.306L1157.52 167.4L1157.1 166.494C1147.58 170.949 1139.47 176.929 1132.78 184.434L1133.52 185.1ZM1157.52 167.4L1157.94 168.309C1167.4 163.971 1177.56 161.8 1188.42 161.8V160.8V159.8C1177.28 159.8 1166.84 162.029 1157.11 166.491L1157.52 167.4ZM1331.47 272.4L1332.45 272.596L1332.45 272.586L1332.45 272.576L1331.47 272.4ZM1334.17 284.1L1333.55 284.881L1333.56 284.895L1333.58 284.909L1334.17 284.1ZM1362.97 286.5L1363.95 286.676L1364.17 285.5H1362.97V286.5ZM1355.17 330V331H1356.01L1356.15 330.176L1355.17 330ZM1280.17 271.8L1279.19 271.623L1279.18 271.634L1279.18 271.646L1280.17 271.8ZM1292.17 205.2L1293.15 205.377L1293.37 204.2H1292.17V205.2ZM1271.77 205.2L1270.79 205.027L1270.58 206.2H1271.77V205.2ZM1279.27 162.6V161.6H1278.43L1278.29 162.427L1279.27 162.6ZM1299.67 162.6V163.6H1300.51L1300.66 162.774L1299.67 162.6ZM1306.87 121.8V120.8H1306.03L1305.89 121.626L1306.87 121.8ZM1358.17 121.8L1359.16 121.974L1359.36 120.8H1358.17V121.8ZM1350.97 162.6L1349.99 162.426L1349.78 163.6H1350.97V162.6ZM1384.57 162.6L1385.56 162.773L1385.76 161.6H1384.57V162.6ZM1377.07 205.2V206.2H1377.91L1378.06 205.373L1377.07 205.2ZM1343.47 205.2V204.2H1342.63L1342.49 205.024L1343.47 205.2ZM1331.47 272.4L1330.49 272.204C1330.27 273.294 1330.17 274.667 1330.17 276.3H1331.17H1332.17C1332.17 274.733 1332.27 273.506 1332.45 272.596L1331.47 272.4ZM1331.17 276.3H1330.17C1330.17 280.074 1331.22 283.023 1333.55 284.881L1334.17 284.1L1334.8 283.319C1333.12 281.977 1332.17 279.726 1332.17 276.3H1331.17ZM1334.17 284.1L1333.58 284.909C1336.04 286.697 1339.8 287.5 1344.67 287.5V286.5V285.5C1339.94 285.5 1336.7 284.703 1334.76 283.291L1334.17 284.1ZM1344.67 286.5V287.5H1362.97V286.5V285.5H1344.67V286.5ZM1362.97 286.5L1361.99 286.323L1354.19 329.824L1355.17 330L1356.15 330.176L1363.95 286.676L1362.97 286.5ZM1355.17 330V329H1329.07V330V331H1355.17V330ZM1329.07 330V329C1312.39 329 1300.06 325.496 1291.91 318.659C1283.8 311.851 1279.67 301.595 1279.67 287.7H1278.67H1277.67C1277.67 302.005 1281.94 312.899 1290.63 320.191C1299.28 327.454 1312.15 331 1329.07 331V330ZM1278.67 287.7H1279.67C1279.67 283.571 1280.16 278.328 1281.16 271.954L1280.17 271.8L1279.18 271.646C1278.18 278.072 1277.67 283.429 1277.67 287.7H1278.67ZM1280.17 271.8L1281.15 271.977L1293.15 205.377L1292.17 205.2L1291.19 205.023L1279.19 271.623L1280.17 271.8ZM1292.17 205.2V204.2H1271.77V205.2V206.2H1292.17V205.2ZM1271.77 205.2L1272.76 205.373L1280.26 162.773L1279.27 162.6L1278.29 162.427L1270.79 205.027L1271.77 205.2ZM1279.27 162.6V163.6H1299.67V162.6V161.6H1279.27V162.6ZM1299.67 162.6L1300.66 162.774L1307.86 121.974L1306.87 121.8L1305.89 121.626L1298.69 162.426L1299.67 162.6ZM1306.87 121.8V122.8H1358.17V121.8V120.8H1306.87V121.8ZM1358.17 121.8L1357.19 121.626L1349.99 162.426L1350.97 162.6L1351.96 162.774L1359.16 121.974L1358.17 121.8ZM1350.97 162.6V163.6H1384.57V162.6V161.6H1350.97V162.6ZM1384.57 162.6L1383.59 162.427L1376.09 205.027L1377.07 205.2L1378.06 205.373L1385.56 162.773L1384.57 162.6ZM1377.07 205.2V204.2H1343.47V205.2V206.2H1377.07V205.2ZM1343.47 205.2L1342.49 205.024L1330.49 272.224L1331.47 272.4L1332.45 272.576L1344.45 205.376L1343.47 205.2ZM1420.65 326.1L1420.27 327.027L1420.28 327.03L1420.65 326.1ZM1396.05 308.7L1395.26 309.32L1395.27 309.33L1396.05 308.7ZM1387.65 275.1V274.1H1386.75L1386.65 274.99L1387.65 275.1ZM1437.15 275.1L1438.14 275.164L1438.21 274.1H1437.15V275.1ZM1442.55 290.1L1441.86 290.825L1441.88 290.843L1441.89 290.859L1442.55 290.1ZM1476.15 291.9L1476.64 292.768V292.768L1476.15 291.9ZM1475.55 271.8L1475.04 272.661L1475.06 272.674L1475.08 272.687L1475.55 271.8ZM1453.35 262.5L1453.67 261.555L1453.66 261.551L1453.35 262.5ZM1426.05 252L1425.6 252.894L1425.61 252.902L1425.63 252.909L1426.05 252ZM1407.45 236.7L1408.23 236.081V236.081L1407.45 236.7ZM1408.35 185.4L1409.15 185.997L1409.15 185.987L1408.35 185.4ZM1432.65 166.8L1432.26 165.876L1432.26 165.879L1432.65 166.8ZM1505.25 167.1L1504.83 168.012L1504.84 168.015L1504.85 168.018L1505.25 167.1ZM1528.95 185.7L1529.76 185.127V185.127L1528.95 185.7ZM1537.35 212.7L1538.34 212.767L1538.35 212.733V212.7H1537.35ZM1537.05 217.2V218.2H1537.98L1538.04 217.267L1537.05 217.2ZM1490.55 217.2L1489.55 217.133L1489.48 218.2H1490.55V217.2ZM1453.65 201L1453.11 200.155L1453.1 200.161L1453.09 200.168L1453.65 201ZM1455.45 222L1454.92 222.848L1454.94 222.861L1454.96 222.872L1455.45 222ZM1478.55 231.6L1478.22 232.545L1478.23 232.549L1478.55 231.6ZM1505.25 242.4L1504.79 243.289L1504.8 243.297L1504.82 243.304L1505.25 242.4ZM1523.55 257.1L1522.76 257.716L1522.77 257.729L1522.78 257.743L1523.55 257.1ZM1521.45 308.4L1520.68 307.754L1520.68 307.76L1520.67 307.766L1521.45 308.4ZM1494.75 326.4L1495.08 327.342L1495.09 327.338L1494.75 326.4ZM1456.35 332.4V331.4C1443.25 331.4 1431.48 329.317 1421.01 325.17L1420.65 326.1L1420.28 327.03C1431.01 331.283 1443.04 333.4 1456.35 333.4V332.4ZM1420.65 326.1L1421.02 325.173C1410.75 321.025 1402.7 315.317 1396.82 308.07L1396.05 308.7L1395.27 309.33C1401.39 316.883 1409.74 322.775 1420.27 327.027L1420.65 326.1ZM1396.05 308.7L1396.83 308.08C1390.97 300.659 1388.05 292.178 1388.05 282.6H1387.05H1386.05C1386.05 292.622 1389.12 301.541 1395.26 309.32L1396.05 308.7ZM1387.05 282.6H1388.05C1388.05 281.262 1388.24 278.813 1388.64 275.21L1387.65 275.1L1386.65 274.99C1386.25 278.587 1386.05 281.138 1386.05 282.6H1387.05ZM1387.65 275.1V276.1H1437.15V275.1V274.1H1387.65V275.1ZM1437.15 275.1L1436.15 275.036C1435.73 281.49 1437.61 286.793 1441.86 290.825L1442.55 290.1L1443.23 289.375C1439.48 285.807 1437.76 281.11 1438.14 275.164L1437.15 275.1ZM1442.55 290.1L1441.89 290.859C1446.33 294.664 1452.5 296.5 1460.25 296.5V295.5V294.5C1452.79 294.5 1447.16 292.736 1443.2 289.341L1442.55 290.1ZM1460.25 295.5V296.5C1466.76 296.5 1472.25 295.278 1476.64 292.768L1476.15 291.9L1475.65 291.032C1471.64 293.322 1466.53 294.5 1460.25 294.5V295.5ZM1476.15 291.9L1476.64 292.768C1481.12 290.212 1483.45 286.5 1483.45 281.7H1482.45H1481.45C1481.45 285.7 1479.58 288.788 1475.65 291.032L1476.15 291.9ZM1482.45 281.7H1483.45C1483.45 277.033 1480.85 273.437 1476.01 270.913L1475.55 271.8L1475.08 272.687C1479.45 274.963 1481.45 277.967 1481.45 281.7H1482.45ZM1475.55 271.8L1476.05 270.939C1471.56 268.285 1464.08 265.158 1453.67 261.555L1453.35 262.5L1453.02 263.445C1463.41 267.042 1470.73 270.115 1475.04 272.661L1475.55 271.8ZM1453.35 262.5L1453.66 261.551C1442.88 257.959 1433.82 254.472 1426.46 251.091L1426.05 252L1425.63 252.909C1433.07 256.328 1442.21 259.841 1453.03 263.449L1453.35 262.5ZM1426.05 252L1426.49 251.106C1419.43 247.574 1413.34 242.571 1408.23 236.081L1407.45 236.7L1406.66 237.319C1411.95 244.029 1418.26 249.226 1425.6 252.894L1426.05 252ZM1407.45 236.7L1408.23 236.081C1403.19 229.689 1400.65 221.62 1400.65 211.8H1399.65H1398.65C1398.65 221.98 1401.3 230.511 1406.66 237.319L1407.45 236.7ZM1399.65 211.8H1400.65C1400.65 202.213 1403.48 193.623 1409.15 185.997L1408.35 185.4L1407.54 184.803C1401.61 192.777 1398.65 201.787 1398.65 211.8H1399.65ZM1408.35 185.4L1409.15 185.987C1414.83 178.155 1422.78 172.06 1433.03 167.721L1432.65 166.8L1432.26 165.879C1421.71 170.34 1413.46 176.645 1407.54 184.813L1408.35 185.4ZM1432.65 166.8L1433.03 167.724C1443.49 163.383 1455.55 161.2 1469.25 161.2V160.2V159.2C1455.34 159.2 1443.01 161.417 1432.26 165.876L1432.65 166.8ZM1469.25 160.2V161.2C1482.94 161.2 1494.79 163.482 1504.83 168.012L1505.25 167.1L1505.66 166.188C1495.3 161.518 1483.15 159.2 1469.25 159.2V160.2ZM1505.25 167.1L1504.85 168.018C1514.9 172.355 1522.65 178.445 1528.13 186.273L1528.95 185.7L1529.76 185.127C1524.04 176.955 1515.99 170.645 1505.64 166.182L1505.25 167.1ZM1528.95 185.7L1528.13 186.273C1533.61 194.101 1536.35 202.9 1536.35 212.7H1537.35H1538.35C1538.35 202.5 1535.49 193.299 1529.76 185.127L1528.95 185.7ZM1537.35 212.7L1536.35 212.633L1536.05 217.133L1537.05 217.2L1538.04 217.267L1538.34 212.767L1537.35 212.7ZM1537.05 217.2V216.2H1490.55V217.2V218.2H1537.05V217.2ZM1490.55 217.2L1491.54 217.267C1491.96 211.001 1490.07 205.888 1485.81 202.057L1485.15 202.8L1484.48 203.543C1488.22 206.912 1489.93 211.399 1489.55 217.133L1490.55 217.2ZM1485.15 202.8L1485.81 202.057C1481.57 198.238 1475.6 196.4 1468.05 196.4V197.4V198.4C1475.29 198.4 1480.72 200.162 1484.48 203.543L1485.15 202.8ZM1468.05 197.4V196.4C1462.11 196.4 1457.11 197.628 1453.11 200.155L1453.65 201L1454.18 201.845C1457.78 199.572 1462.38 198.4 1468.05 198.4V197.4ZM1453.65 201L1453.09 200.168C1449.22 202.747 1447.25 206.354 1447.25 210.9H1448.25H1449.25C1449.25 207.046 1450.87 204.053 1454.2 201.832L1453.65 201ZM1448.25 210.9H1447.25C1447.25 215.744 1449.92 219.725 1454.92 222.848L1455.45 222L1455.98 221.152C1451.37 218.275 1449.25 214.856 1449.25 210.9H1448.25ZM1455.45 222L1454.96 222.872C1460.04 225.717 1467.8 228.94 1478.22 232.545L1478.55 231.6L1478.87 230.655C1468.49 227.06 1460.85 223.883 1455.93 221.127L1455.45 222ZM1478.55 231.6L1478.23 232.549C1489 236.139 1497.85 239.72 1504.79 243.289L1505.25 242.4L1505.7 241.511C1498.64 237.88 1489.69 234.261 1478.86 230.651L1478.55 231.6ZM1505.25 242.4L1504.82 243.304C1511.87 246.636 1517.85 251.436 1522.76 257.716L1523.55 257.1L1524.33 256.484C1519.24 249.964 1513.02 244.964 1505.67 241.496L1505.25 242.4ZM1523.55 257.1L1522.78 257.743C1527.8 263.734 1530.35 271.295 1530.35 280.5H1531.35H1532.35C1532.35 270.905 1529.69 262.866 1524.31 256.457L1523.55 257.1ZM1531.35 280.5H1530.35C1530.35 291.078 1527.12 300.145 1520.68 307.754L1521.45 308.4L1522.21 309.046C1528.97 301.055 1532.35 291.522 1532.35 280.5H1531.35ZM1521.45 308.4L1520.67 307.766C1514.41 315.402 1505.67 321.311 1494.4 325.462L1494.75 326.4L1495.09 327.338C1506.62 323.089 1515.68 316.997 1522.22 309.034L1521.45 308.4ZM1494.75 326.4L1494.41 325.458C1483.34 329.413 1470.65 331.4 1456.35 331.4V332.4V333.4C1470.84 333.4 1483.75 331.387 1495.08 327.342L1494.75 326.4Z" fill="#0297FE" mask="url(#path-1-outside-1_3_36)"/>
<path d="M1641.01 67.6757C1644.91 67.2332 1647.76 68.1545 1649.72 69.6155C1651.7 71.0953 1653.25 73.4868 1653.87 76.8158C1655.13 83.5314 1652.47 94.1724 1641.43 105.105C1629.39 117.01 1633.52 131.633 1635.79 140.197C1636.41 142.535 1636.91 144.4 1637.21 146.055C1637.52 147.738 1637.51 148.647 1637.43 149.089C1637.43 149.093 1637.42 149.096 1637.42 149.1C1637.17 149.246 1636.41 149.588 1634.71 149.796C1630.36 150.326 1627.47 149.634 1625.42 148.475C1623.33 147.294 1621.46 145.265 1619.81 142.014C1616.34 135.189 1614.66 124.803 1613.19 111.774L1613.18 111.686L1613.05 110.608C1610.68 88.0536 1624.15 69.7446 1641.01 67.6757Z" fill="#0297FE" stroke="#0297FE" stroke-width="12.5"/>
<path d="M1664.08 47.5759L1664.24 47.6295L1664.4 47.6749C1665.73 48.0555 1666.43 48.7047 1666.75 49.2219C1667.01 49.6444 1667.33 50.4844 1666.86 52.1122C1665.84 55.6736 1664.42 57.3767 1663.48 58.0629C1662.69 58.6449 1662.15 58.6294 1661.66 58.4594L1661.5 58.4059L1661.34 58.3608C1660.61 58.1501 1660.08 57.7365 1659.72 56.8406C1659.3 55.7836 1658.97 53.59 1660.04 49.868C1660.51 48.2247 1661.22 47.7185 1661.59 47.5372C1662.04 47.3171 1662.87 47.158 1664.08 47.5759Z" fill="#0297FE" stroke="#0297FE" stroke-width="12.5"/>
<path d="M1644.18 47.0853C1644.62 47.1498 1644.87 47.2465 1644.98 47.3063C1645.01 47.4251 1645.04 47.6812 1645 48.1151C1644.73 50.395 1644.09 51.2848 1643.87 51.5232C1643.85 51.4878 1643.82 51.4438 1643.79 51.3905C1643.56 50.9888 1643.15 49.886 1643.35 47.705C1643.41 47.3743 1643.49 47.1808 1643.53 47.0867C1643.64 47.0656 1643.84 47.046 1644.18 47.0853Z" fill="#0297FE" stroke="#0297FE" stroke-width="12.5"/>
<mask id="path-6-inside-2_3_36" fill="white">
<path d="M1623.37 51.0774C1623.37 46.9841 1626.23 45.1699 1629.51 44.9389C1632.98 45.0556 1635.65 46.987 1635.65 51.0803C1635.72 56.95 1632.82 59.9227 1629.35 59.8061C1625.87 59.6894 1623.36 57.2174 1623.37 51.0774Z"/>
</mask>
<path d="M1623.37 51.0774C1623.37 46.9841 1626.23 45.1699 1629.51 44.9389C1632.98 45.0556 1635.65 46.987 1635.65 51.0803C1635.72 56.95 1632.82 59.9227 1629.35 59.8061C1625.87 59.6894 1623.36 57.2174 1623.37 51.0774Z" fill="#0297FE"/>
<path d="M1623.37 51.0774L1610.87 51.0744L1610.87 51.0744L1623.37 51.0774ZM1629.51 44.9389L1629.93 32.446L1629.28 32.4242L1628.63 32.4698L1629.51 44.9389ZM1635.65 51.0803L1623.15 51.0774L1623.15 51.1596L1623.15 51.2418L1635.65 51.0803ZM1623.37 51.0774L1635.87 51.0804C1635.87 51.5258 1635.78 52.3396 1635.36 53.3249C1634.93 54.3311 1634.28 55.2265 1633.48 55.9265C1631.98 57.2585 1630.61 57.3924 1630.38 57.4081L1629.51 44.9389L1628.63 32.4698C1625.12 32.7164 1620.69 33.8729 1616.93 37.1931C1612.84 40.8046 1610.87 45.8339 1610.87 51.0744L1623.37 51.0774ZM1629.51 44.9389L1629.09 57.4319C1628.74 57.4203 1627.11 57.2734 1625.43 55.7308C1623.52 53.9798 1623.15 51.9094 1623.15 51.0774L1635.65 51.0803L1648.15 51.0833C1648.15 46.158 1646.44 41.0752 1642.33 37.306C1638.45 33.7452 1633.75 32.5742 1629.93 32.446L1629.51 44.9389ZM1635.65 51.0803L1623.15 51.2418C1623.16 52.2267 1622.9 51.37 1624 49.9644C1624.57 49.2404 1625.41 48.5083 1626.53 47.9885C1627.64 47.4701 1628.77 47.2796 1629.77 47.3131L1629.35 59.8061L1628.93 72.299C1634.66 72.4915 1640.06 69.9945 1643.66 65.4117C1647.06 61.0815 1648.21 55.8037 1648.14 50.9189L1635.65 51.0803ZM1629.35 59.8061L1629.77 47.3131C1630.33 47.3319 1631.25 47.4611 1632.31 47.9667C1633.42 48.4943 1634.35 49.2745 1635.01 50.148C1636.24 51.7593 1635.87 52.7034 1635.87 51.0804L1623.37 51.0774L1610.87 51.0744C1610.86 55.5914 1611.75 60.8415 1615.09 65.2529C1618.8 70.136 1624.08 72.1363 1628.93 72.299L1629.35 59.8061Z" fill="#0297FE" mask="url(#path-6-inside-2_3_36)"/>
<path d="M1619.71 60.2956C1619.72 60.3012 1619.74 60.3072 1619.75 60.313C1619.73 60.3456 1619.7 60.3784 1619.68 60.41C1619.32 60.8351 1618.93 61.0032 1618.68 61.0673C1618.58 61.0292 1618.43 60.9632 1618.25 60.8445C1618.12 60.7552 1617.99 60.651 1617.87 60.5349C1617.88 60.5275 1617.89 60.5198 1617.9 60.5125C1618.24 60.2818 1618.55 60.2019 1618.71 60.1796L1618.91 60.1633C1619.13 60.158 1619.4 60.1888 1619.71 60.2956Z" fill="#0297FE" stroke="#0297FE" stroke-width="12.5"/>
<path d="M1611.4 70.2814C1611.39 70.2835 1611.38 70.2871 1611.37 70.2885C1611.18 70.3124 1610.48 70.3247 1609.71 69.7737C1609.35 69.5143 1609.1 69.211 1608.94 68.9427C1608.86 68.8009 1608.81 68.6858 1608.79 68.6122C1608.8 68.5798 1608.82 68.5448 1608.84 68.5061L1611.13 68.0778M1611.4 70.2814L1611.13 68.0778M1611.4 70.2814C1611.64 70.2432 1612.23 70.0772 1612.78 69.4177C1613.07 69.0628 1613.29 68.637 1613.39 68.1921C1613.42 68.0655 1613.44 67.9475 1613.45 67.8402C1613.4 67.7882 1613.34 67.7331 1613.27 67.6771L1611.13 68.0778M1611.4 70.2814L1611.13 68.0778M1612.8 67.3808C1612.65 67.2997 1612.47 67.2239 1612.28 67.1616C1611.8 67.0118 1611.32 66.9736 1610.87 67.0227C1610.57 67.0764 1610.2 67.197 1609.83 67.4398C1609.54 67.6213 1609.32 67.8325 1609.14 68.0435L1609.46 68.0071M1612.8 67.3808L1609.46 68.0071M1612.8 67.3808C1612.93 67.444 1613.03 67.5107 1613.13 67.5778L1609.46 68.0071M1612.8 67.3808L1609.46 68.0071" fill="#0297FE" stroke="#0297FE" stroke-width="12.5"/>
<path d="M1679.23 129.778C1681.64 130.04 1684.35 131.308 1686.9 134.303L1686.91 134.32L1686.93 134.338C1698.06 147.253 1695.42 170.159 1677.69 185.588C1667.83 194.171 1659.56 200.639 1652.38 203.292C1648.96 204.557 1646.19 204.788 1643.84 204.245C1641.53 203.713 1638.93 202.28 1636.1 198.99C1635.03 197.749 1634.69 197.012 1634.59 196.721C1634.83 196.345 1635.43 195.676 1636.78 194.655C1638.11 193.641 1639.74 192.602 1641.77 191.297C1649.22 186.511 1662.09 178.512 1661.36 161.642L1661.36 161.627L1661.36 161.611L1661.33 160.88C1660.77 145.641 1665.96 136.231 1671.34 132.225C1674.04 130.208 1676.79 129.513 1679.23 129.778Z" fill="#0297FE" stroke="#0297FE" stroke-width="12.5"/>
<path d="M1680.26 103.088C1680.84 102.929 1681.9 102.923 1683.36 103.602C1684.67 104.214 1685.15 104.915 1685.31 105.326C1685.44 105.651 1685.65 106.502 1684.84 108.175C1683.19 111.516 1681.48 112.922 1680.41 113.445C1679.45 113.917 1678.76 113.828 1678.2 113.564L1678.18 113.552L1678.15 113.541L1677.92 113.417C1677.38 113.106 1677.02 112.637 1676.85 111.806C1676.61 110.69 1676.68 108.488 1678.35 105.098L1678.36 105.077L1678.37 105.055C1679.11 103.524 1679.86 103.2 1680.26 103.088Z" fill="#0297FE" stroke="#0297FE" stroke-width="12.5"/>
<path d="M1697.73 115.973C1697.84 116.012 1698.03 116.097 1698.29 116.29C1698.8 116.676 1698.97 116.956 1699.02 117.054C1699.01 117.124 1698.94 117.336 1698.72 117.69C1697.33 119.629 1696.29 120.074 1696.03 120.151C1696.01 120.155 1696 120.156 1695.99 120.158C1695.9 120.087 1695.86 120.039 1695.84 120.021C1695.84 120.007 1695.83 119.979 1695.83 119.932C1695.82 119.68 1695.89 118.553 1697.35 116.476L1697.41 116.395L1697.46 116.312C1697.58 116.144 1697.67 116.037 1697.73 115.973Z" fill="#0297FE" stroke="#0297FE" stroke-width="12.5"/>
<mask id="path-13-inside-3_3_36" fill="white">
<path d="M1711.12 133.775C1714.02 130.802 1713.25 127.365 1710.66 125.164C1708.07 122.962 1704.67 122.575 1701.78 125.548C1697.88 129.988 1697.95 133.811 1700.46 136.283C1703.05 138.484 1707.22 138.215 1711.12 133.775Z"/>
</mask>
<path d="M1711.12 133.775C1714.02 130.802 1713.25 127.365 1710.66 125.164C1708.07 122.962 1704.67 122.575 1701.78 125.548C1697.88 129.988 1697.95 133.811 1700.46 136.283C1703.05 138.484 1707.22 138.215 1711.12 133.775Z" fill="#0297FE"/>
<path d="M1711.12 133.775L1702.17 125.051L1701.94 125.282L1701.73 125.524L1711.12 133.775ZM1701.78 125.548L1692.83 116.824L1692.6 117.055L1692.39 117.297L1701.78 125.548ZM1700.46 136.283L1691.69 145.188L1692.01 145.507L1692.36 145.801L1700.46 136.283ZM1711.12 133.775L1720.07 142.499C1723.73 138.743 1725.96 133.598 1725.38 127.908C1724.83 122.536 1721.95 118.358 1718.76 115.645L1710.66 125.164L1702.56 134.682C1701.96 134.171 1700.75 132.813 1700.51 130.453C1700.24 127.775 1701.41 125.834 1702.17 125.051L1711.12 133.775ZM1710.66 125.164L1718.76 115.645C1715.74 113.077 1711.48 110.916 1706.34 110.915C1700.97 110.914 1696.28 113.277 1692.83 116.824L1701.78 125.548L1710.73 134.272C1710.17 134.846 1708.63 135.916 1706.33 135.915C1704.26 135.915 1702.99 135.049 1702.56 134.682L1710.66 125.164ZM1701.78 125.548L1692.39 117.297C1689.35 120.753 1686.72 125.243 1686.26 130.593C1685.77 136.372 1687.97 141.528 1691.69 145.188L1700.46 136.283L1709.23 127.378C1709.74 127.88 1710.32 128.646 1710.72 129.688C1711.13 130.749 1711.25 131.808 1711.17 132.713C1711.02 134.424 1710.3 134.782 1711.17 133.799L1701.78 125.548ZM1700.46 136.283L1692.36 145.801C1696.56 149.375 1702.08 150.839 1707.6 149.806C1712.9 148.813 1717.25 145.74 1720.51 142.026L1711.12 133.775L1701.73 125.524C1701.09 126.25 1701.4 125.532 1703 125.233C1704.81 124.894 1706.95 125.392 1708.56 126.764L1700.46 136.283Z" fill="#0297FE" mask="url(#path-13-inside-3_3_36)"/>
<path d="M1707.96 144.214C1708.07 144.267 1708.24 144.331 1708.47 144.369C1708.63 144.395 1708.79 144.399 1708.94 144.389C1708.93 144.316 1708.92 144.239 1708.9 144.161C1708.86 143.971 1708.79 143.831 1708.73 143.741L1708.68 143.667M1707.96 144.214L1708.68 143.667M1707.96 144.214L1708.68 143.667M1707.96 144.214C1707.95 144.208 1707.94 144.201 1707.93 144.195L1708.61 143.581L1708.68 143.667M1707.61 142.932C1707.69 142.96 1707.77 142.993 1707.86 143.033C1708.02 143.108 1708.15 143.192 1708.27 143.275L1707.6 143.783C1707.57 143.681 1707.55 143.525 1707.56 143.315C1707.56 143.186 1707.58 143.057 1707.61 142.932Z" fill="#0297FE" stroke="#0297FE" stroke-width="12.5"/>
<path d="M1707 156.355C1707.15 156.459 1707.52 156.66 1708.1 156.734C1708.64 156.802 1709.17 156.734 1709.61 156.574C1709.63 156.566 1709.65 156.556 1709.67 156.548C1709.71 156.373 1709.74 156.172 1709.73 155.955L1708.81 154.937L1707.63 155.743M1707 156.355L1707.63 155.743M1707 156.355C1706.98 156.342 1706.96 156.33 1706.95 156.321C1706.93 156.3 1706.91 156.275 1706.89 156.246L1707.63 155.743M1707 156.355L1707.63 155.743M1709.72 155.716C1709.72 155.738 1709.72 155.758 1709.72 155.779L1709.28 155.228M1709.72 155.716L1709.28 155.228M1709.72 155.716C1709.71 155.635 1709.7 155.551 1709.68 155.466C1709.6 155.043 1709.44 154.745 1709.33 154.585L1708.96 154.837L1709.28 155.228M1709.72 155.716L1709.28 155.228M1707.72 153.729L1706.45 155.295C1706.38 155.024 1706.34 154.706 1706.36 154.343C1706.4 153.51 1706.72 153.022 1706.85 152.856C1706.87 152.854 1706.89 152.851 1706.92 152.85C1706.92 152.85 1706.93 152.85 1706.93 152.85L1707.72 153.729ZM1707.53 152.938C1707.75 153.013 1707.95 153.126 1708.11 153.255L1707.89 153.522L1707.39 152.899C1707.43 152.91 1707.48 152.922 1707.53 152.938Z" fill="#0297FE" stroke="#0297FE" stroke-width="12.5"/>
<path d="M727 431C724.239 431 722 433.239 722 436C722 438.761 724.239 441 727 441V436V431ZM759.183 433.792C761.806 432.928 763.233 430.102 762.369 427.479C761.506 424.856 758.68 423.43 756.057 424.293L757.62 429.042L759.183 433.792ZM816.792 405.709C814.121 406.407 812.52 409.138 813.218 411.81C813.916 414.482 816.647 416.082 819.319 415.384L818.056 410.547L816.792 405.709ZM880.537 402.031C883.255 401.541 885.06 398.94 884.57 396.223C884.08 393.505 881.48 391.7 878.762 392.19L879.65 397.11L880.537 402.031ZM941.623 382.711C938.882 383.052 936.938 385.55 937.279 388.29C937.62 391.031 940.118 392.975 942.859 392.634L942.241 387.672L941.623 382.711ZM1005.38 386.169C1008.13 385.937 1010.18 383.518 1009.95 380.767C1009.71 378.015 1007.29 375.972 1004.54 376.204L1004.96 381.186L1005.38 386.169ZM1067.74 371.892C1064.99 372.04 1062.87 374.395 1063.02 377.152C1063.16 379.91 1065.52 382.025 1068.28 381.878L1068.01 376.885L1067.74 371.892ZM1131.22 379.311C1133.98 379.231 1136.15 376.929 1136.07 374.169C1135.99 371.408 1133.69 369.235 1130.93 369.315L1131.08 374.313L1131.22 379.311ZM1194.26 368.138C1191.5 368.163 1189.28 370.421 1189.31 373.182C1189.33 375.943 1191.59 378.162 1194.35 378.138L1194.3 373.138L1194.26 368.138ZM1255.1 378.085C1257.86 378.101 1260.11 375.875 1260.13 373.114C1260.14 370.353 1257.92 368.101 1255.15 368.085L1255.13 373.085L1255.1 378.085ZM1313.13 368.776C1310.37 368.726 1308.1 370.924 1308.05 373.685C1308 376.446 1310.19 378.724 1312.95 378.774L1313.04 373.775L1313.13 368.776ZM1370.66 380.169C1373.42 380.252 1375.73 378.082 1375.81 375.322C1375.89 372.561 1373.72 370.257 1370.96 370.174L1370.81 375.171L1370.66 380.169ZM1428.68 372.176C1425.92 372.071 1423.6 374.223 1423.5 376.983C1423.39 379.742 1425.54 382.064 1428.3 382.168L1428.49 377.172L1428.68 372.176ZM1486.24 384.129C1489 384.188 1491.29 381.998 1491.35 379.237C1491.41 376.477 1489.22 374.19 1486.46 374.131L1486.35 379.13L1486.24 384.129ZM1542.85 371.558C1540.14 372.107 1538.4 374.745 1538.94 377.452C1539.49 380.158 1542.13 381.907 1544.84 381.359L1543.84 376.458L1542.85 371.558ZM1590.05 342.559C1591.24 340.067 1590.18 337.083 1587.69 335.895C1585.2 334.707 1582.22 335.764 1581.03 338.257L1585.54 340.408L1590.05 342.559ZM1603.28 285.087C1602.2 287.632 1603.4 290.564 1605.94 291.636C1608.49 292.708 1611.42 291.514 1612.49 288.969L1607.88 287.028L1603.28 285.087ZM727 436V441C736.298 441 746.337 438.021 759.183 433.792L757.62 429.042L756.057 424.293C742.973 428.6 734.438 431 727 431V436ZM818.056 410.547L819.319 415.384C836.183 410.981 856.283 406.407 880.537 402.031L879.65 397.11L878.762 392.19C854.255 396.611 833.904 401.241 816.792 405.709L818.056 410.547ZM942.241 387.672L942.859 392.634C961.819 390.273 982.591 388.089 1005.38 386.169L1004.96 381.186L1004.54 376.204C981.626 378.135 960.722 380.332 941.623 382.711L942.241 387.672ZM1068.01 376.885L1068.28 381.878C1088 380.824 1108.95 379.956 1131.22 379.311L1131.08 374.313L1130.93 369.315C1108.59 369.963 1087.55 370.833 1067.74 371.892L1068.01 376.885ZM1194.3 373.138L1194.35 378.138C1204.65 378.047 1215.2 378 1226 378V373V368C1215.17 368 1204.6 368.047 1194.26 368.138L1194.3 373.138ZM1226 373V378C1236 378 1245.69 378.03 1255.1 378.085L1255.13 373.085L1255.15 368.085C1245.73 368.03 1236.02 368 1226 368V373ZM1313.04 373.775L1312.95 378.774C1333.89 379.153 1353.07 379.64 1370.66 380.169L1370.81 375.171L1370.96 370.174C1353.34 369.644 1334.12 369.155 1313.13 368.776L1313.04 373.775ZM1428.49 377.172L1428.3 382.168C1451.01 383.029 1470.11 383.781 1486.24 384.129L1486.35 379.13L1486.46 374.131C1470.43 373.786 1451.44 373.038 1428.68 372.176L1428.49 377.172ZM1543.84 376.458L1544.84 381.359C1556.4 379.014 1565.18 375.012 1572.42 368.477C1579.57 362.029 1584.88 353.427 1590.05 342.559L1585.54 340.408L1581.03 338.257C1576.05 348.7 1571.43 355.909 1565.72 361.052C1560.12 366.107 1553.12 369.475 1542.85 371.558L1543.84 376.458ZM1607.88 287.028L1612.49 288.969C1615.9 280.87 1619.71 272.091 1624.05 262.574L1619.5 260.5L1614.95 258.426C1610.56 268.046 1606.72 276.916 1603.28 285.087L1607.88 287.028Z" fill="#0297FE"/>
<path d="M160.382 370.538C157.642 370.88 155.697 373.378 156.038 376.118C156.38 378.858 158.878 380.803 161.618 380.462L161 375.5L160.382 370.538ZM194.311 377.793C197.071 377.684 199.219 375.358 199.11 372.599C199 369.84 196.675 367.691 193.916 367.801L194.114 372.797L194.311 377.793ZM261 370.326C258.255 370.026 255.787 372.008 255.486 374.753C255.186 377.498 257.168 379.967 259.913 380.267L260.457 375.297L261 370.326ZM324.915 391.112C327.614 391.697 330.276 389.982 330.86 387.283C331.444 384.584 329.73 381.923 327.031 381.339L325.973 386.225L324.915 391.112ZM391.766 397.423C389.101 396.699 386.354 398.273 385.631 400.938C384.907 403.603 386.481 406.35 389.146 407.073L390.456 402.248L391.766 397.423ZM453.21 424.737C455.876 425.459 458.622 423.883 459.343 421.217C460.065 418.552 458.489 415.806 455.824 415.084L454.517 419.911L453.21 424.737ZM520.068 430.998C517.368 430.414 514.707 432.129 514.124 434.829C513.541 437.528 515.256 440.189 517.955 440.772L519.011 435.885L520.068 430.998ZM583.941 451.892C586.685 452.205 589.163 450.235 589.476 447.491C589.789 444.748 587.819 442.27 585.075 441.956L584.508 446.924L583.941 451.892ZM650.713 445.071C647.953 445.137 645.768 447.428 645.834 450.189C645.9 452.949 648.192 455.134 650.952 455.068L650.833 450.069L650.713 445.071ZM161 375.5L161.618 380.462C172.629 379.09 183.521 378.22 194.311 377.793L194.114 372.797L193.916 367.801C182.855 368.239 171.682 369.13 160.382 370.538L161 375.5ZM260.457 375.297L259.913 380.267C281.809 382.662 303.421 386.459 324.915 391.112L325.973 386.225L327.031 381.339C305.286 376.631 283.321 372.768 261 370.326L260.457 375.297ZM390.456 402.248L389.146 407.073C399.789 409.962 410.43 412.923 421.104 415.891C431.773 418.857 442.474 421.83 453.21 424.737L454.517 419.911L455.824 415.084C445.125 412.188 434.455 409.223 423.783 406.256C413.116 403.29 402.444 400.321 391.766 397.423L390.456 402.248ZM519.011 435.885L517.955 440.772C539.59 445.449 561.542 449.336 583.941 451.892L584.508 446.924L585.075 441.956C563.077 439.446 541.459 435.622 520.068 430.998L519.011 435.885ZM650.833 450.069L650.952 455.068C662.004 454.804 673.184 454.125 684.505 452.974L684 448L683.495 443.026C672.438 444.149 661.517 444.813 650.713 445.071L650.833 450.069Z" fill="#0297FE"/>
</svg>
