<svg width="805" height="119" viewBox="0 0 805 119" fill="none" xmlns="http://www.w3.org/2000/svg">
<mask id="path-1-inside-1_25_5131" fill="white">
<path fill-rule="evenodd" clip-rule="evenodd" d="M201.163 16.1713C195.981 25.07 184.931 44.0517 176.609 58.3532C168.286 72.6555 161.262 84.919 160.997 85.606C160.567 86.7279 161.433 86.8337 169.46 86.6403L178.402 86.4247L183.903 76.9046C186.93 71.6685 194.111 59.3304 199.863 49.4865C205.615 39.6427 210.59 31.3099 210.921 30.9687C211.251 30.6275 214.181 34.9116 217.433 40.4888C220.684 46.0661 227.369 57.4835 232.289 65.8612C237.209 74.2389 243.829 85.6319 247.002 91.1795L252.769 101.265L202.037 101.461L151.306 101.657L147.291 108.511C145.082 112.281 143.254 115.623 143.229 115.937C143.204 116.251 173.857 116.508 211.347 116.508C257.369 116.508 279.512 116.255 279.512 115.728C279.512 115.299 278.181 112.815 276.555 110.206C274.928 107.598 269.231 97.9251 263.894 88.7096C258.557 79.4941 251.557 67.4987 248.338 62.0531C245.12 56.6076 240.3 48.3822 237.629 43.7744C234.958 39.1667 229.37 29.5704 225.212 22.4493C221.053 15.3282 216.403 7.36556 214.88 4.75475C213.356 2.1447 211.766 0.00457183 211.347 2.15095e-06C210.929 -0.00456752 206.346 7.27264 201.163 16.1713ZM0.571209 36.958C0.257425 37.2863 0 39.1682 0 41.1408C0 44.5475 0.118811 44.7501 2.38004 45.2025C3.68925 45.4645 11.8522 45.6785 20.5201 45.6785C32.5665 45.6785 37.2215 45.958 40.2725 46.8635C42.5802 47.549 45.5513 49.2116 47.3144 50.8049C48.9922 52.3205 50.9305 54.6152 51.6213 55.9031C52.5071 57.5535 52.878 60.1567 52.878 64.7188C52.878 69.3479 52.5109 71.8787 51.5886 73.5992C50.8787 74.9229 49.025 77.0554 47.469 78.3379C45.913 79.6205 43.0783 81.2473 41.1697 81.9518C38.3784 82.983 34.0144 83.3006 18.8499 83.5732L0 83.9129V100.591V117.27H4.55063H9.10127L9.31071 104.894L9.52015 92.5176L23.9908 92.0789C31.9984 91.8367 39.9862 91.2069 41.8757 90.6692C43.7539 90.1345 46.8384 88.9099 48.7302 87.9464C50.6221 86.9838 53.5025 84.8764 55.1308 83.264C56.7592 81.6509 58.9107 78.5664 59.913 76.408C60.9145 74.2496 61.9412 70.2686 62.194 67.5619C62.4713 64.5863 62.2717 61.0166 61.6876 58.5383C61.1567 56.2824 60.0813 53.1613 59.2976 51.6023C58.5139 50.0433 56.8704 47.6251 55.6457 46.2299C54.4203 44.8346 51.6465 42.7287 49.4812 41.5498C47.3159 40.3716 43.779 38.91 41.6221 38.3015C38.9359 37.5444 31.9382 37.0646 19.4211 36.7783C9.36783 36.549 0.884994 36.6298 0.571209 36.958ZM78.4461 40.3655C78.4461 42.2695 78.4461 44.1735 78.4461 44.9351C78.4461 44.9351 88.9213 45.2977 105.33 45.2977H131.378V41.1088V36.9199L104.99 36.7196L78.4461 36.5574V40.3655ZM292.967 37.0471C292.688 37.3259 292.459 55.4903 292.459 77.4126V117.27H297.029H301.598L301.694 109.654C301.746 105.465 301.832 100.673 301.884 99.0058C301.971 96.229 302.62 95.3303 309.585 88.3394C313.768 84.1407 317.434 80.7926 317.732 80.8992C318.03 81.0059 322.774 86.2343 328.273 92.5176C333.773 98.8009 340.875 106.956 344.055 110.64L349.839 117.339L354.081 117.114C357.278 116.945 358.382 116.584 358.559 115.651C358.696 114.932 353.602 108.377 346.428 100.038C339.626 92.1315 331.709 82.9853 328.834 79.7119L323.608 73.7599L340.021 56.7706C349.048 47.4264 356.435 39.4066 356.435 38.9489C356.435 38.4904 355.772 37.7615 354.962 37.3274C354.151 36.894 352.234 36.5391 350.7 36.5391C348.07 36.5391 347.015 37.4614 332.19 52.7234C323.544 61.6251 313.39 72.0912 309.626 75.983C303.965 81.8352 302.689 82.8223 302.244 81.6951C301.948 80.9449 301.682 70.4788 301.652 58.4355L301.598 36.5391H297.537C295.302 36.5391 293.246 36.7676 292.967 37.0471ZM389.964 37.76C387.671 38.3761 384.415 39.6945 382.728 40.6884C381.043 41.6823 378.74 43.469 377.61 44.6587C376.481 45.8475 374.81 48.5094 373.898 50.5734C372.786 53.0859 372.238 55.8536 372.239 58.9511C372.24 62.1666 372.765 64.6929 373.962 67.2397C375.012 69.4697 377.013 71.9168 379.082 73.4956C380.949 74.9221 384.298 76.7705 386.524 77.603C388.748 78.4354 394.627 80.178 399.587 81.4765C404.547 82.7743 410.396 84.6966 412.585 85.7492C414.774 86.801 417.231 88.507 418.044 89.5405C418.857 90.574 419.754 92.7903 420.037 94.4651C420.439 96.8466 420.162 98.2952 418.767 101.107C417.522 103.617 416.044 105.216 413.878 106.402C412.169 107.336 408.509 108.42 405.742 108.812C402.773 109.233 398.558 109.254 395.456 108.864C392.565 108.502 388.246 107.473 385.857 106.58C383.47 105.686 379.951 103.761 378.039 102.301C376.127 100.842 374.168 99.8055 373.686 99.9974C373.204 100.19 372.131 101.63 371.302 103.198L369.795 106.048L372.818 108.661C374.48 110.098 378.02 112.314 380.684 113.585C383.348 114.856 388.32 116.4 391.735 117.016C395.69 117.73 399.933 117.969 403.428 117.674C406.444 117.421 410.771 116.574 413.043 115.792C415.315 115.01 418.527 113.476 420.181 112.38C421.835 111.286 423.881 109.454 424.728 108.308C425.575 107.163 426.9 105.027 427.674 103.561C428.647 101.718 429.088 99.2427 429.104 95.5389C429.123 91.0652 428.786 89.6029 427.064 86.6646C425.93 84.7294 423.557 82.0835 421.791 80.7842C420.024 79.4849 416.701 77.7195 414.405 76.8604C412.111 76.0021 406.474 74.277 401.881 73.0287C397.287 71.7797 391.864 70.0409 389.828 69.1651C387.792 68.2892 385.101 66.405 383.847 64.977C381.937 62.801 381.568 61.7355 381.568 58.3951C381.568 55.4149 382.041 53.7135 383.444 51.6487C384.527 50.0555 386.857 48.1438 388.955 47.1286C391.624 45.8361 394.331 45.2855 399.149 45.0555C403.83 44.8316 406.995 45.1103 410.203 46.0296C412.675 46.7379 416.532 48.3418 418.773 49.5939C421.015 50.8468 422.943 51.763 423.059 51.6312C423.175 51.4987 424.035 49.8719 424.972 48.0159C426.624 44.7409 426.632 44.6092 425.256 43.5498C424.475 42.9496 422.124 41.6572 420.029 40.677C417.935 39.6975 414.178 38.3655 411.682 37.7173C409.185 37.0692 404.217 36.562 400.639 36.5894C397.061 36.6168 392.258 37.1438 389.964 37.76ZM445.3 37.0372C445.015 37.3221 444.782 39.2109 444.782 41.236V44.9169L456.015 44.9306C462.194 44.9374 469.543 45.1514 472.347 45.405C475.151 45.6594 482.108 45.6168 487.807 45.3121L498.168 44.7569L497.941 40.8384L497.714 36.9199L471.766 36.7196C457.494 36.6092 445.584 36.7524 445.3 37.0372ZM519.229 36.958C518.915 37.2863 518.658 39.2109 518.658 41.236C518.658 44.5429 518.832 44.9176 520.372 44.9268C521.314 44.9321 529.454 45.1324 538.46 45.3715C549.163 45.6564 556.231 46.191 558.864 46.9161C561.368 47.6046 564.081 49.0943 566.029 50.8498C567.752 52.4035 569.787 55.0463 570.55 56.7218C571.346 58.4705 571.943 61.5528 571.95 63.9572C571.956 66.261 571.587 69.5169 571.129 71.1925C570.597 73.1369 569.014 75.4811 566.754 77.6723C564.806 79.5603 561.841 81.5778 560.166 82.1551C558.02 82.8947 551.428 83.3097 537.874 83.558L518.629 83.9114L518.834 100.4L519.039 116.889L523.418 117.118L527.797 117.346V107.122C527.797 101.498 528.011 95.8261 528.273 94.5169L528.749 92.1368L542.173 92.1422L555.596 92.1475L564.444 104.518L573.292 116.889H577.381C580.649 116.889 581.521 116.625 581.723 115.575C581.864 114.844 578.694 109.604 574.579 103.77C570.51 97.9997 566.509 92.5321 565.685 91.6189L564.19 89.9586L568.431 87.5649C570.764 86.248 573.748 83.9457 575.062 82.4491C576.377 80.9518 578.181 78.1498 579.071 76.2214C580.406 73.3334 580.686 71.3075 580.662 64.7188C580.64 58.2435 580.327 56.0455 579.021 53.1651C578.135 51.2093 576.129 48.1918 574.563 46.4591C572.998 44.7265 570.318 42.498 568.608 41.5056C566.897 40.514 563.441 39.1393 560.927 38.4508C557.55 37.5262 551.59 37.0905 538.079 36.7806C528.026 36.5498 519.544 36.6298 519.229 36.958ZM591.011 37.7295C591.011 38.3243 594.055 45.5825 597.774 53.8589C601.494 62.1361 608.218 77.1331 612.715 87.1863C617.212 97.2396 622.099 108.122 623.575 111.368L626.257 117.27H630.246H634.236L635.885 113.437C636.791 111.329 642.873 97.7057 649.399 83.1627C655.926 68.6205 663.105 52.4835 665.351 47.3022C667.598 42.1217 669.249 37.581 669.021 37.2109C668.792 36.8415 666.955 36.5391 664.936 36.5391C662.904 36.5391 660.909 36.9694 660.466 37.5041C660.025 38.0342 657.034 44.2893 653.818 51.4035C650.604 58.517 646.79 67.0798 645.345 70.4309C643.901 73.782 639.938 82.6342 636.54 90.1025C631.936 100.222 630.19 103.374 629.688 102.476C629.317 101.814 624.897 92.1048 619.866 80.9007C614.834 69.6967 608.438 55.389 605.652 49.1057C602.866 42.8224 600.252 37.4492 599.841 37.1644C599.43 36.8803 597.275 36.648 595.053 36.648C592.069 36.648 591.011 36.9314 591.011 37.7295ZM679.942 40.1469C679.76 42.1423 679.907 44.1118 680.271 44.5239C680.668 44.9732 690.385 45.3898 704.506 45.5627C717.471 45.7219 729.3 45.6229 730.794 45.3426L733.51 44.8331L733.28 40.8765L733.052 36.9199L706.664 36.7196L680.274 36.5193L679.942 40.1469ZM766.182 37.6579C764.297 38.1979 761.898 38.99 760.851 39.418C759.804 39.846 757.576 41.1987 755.9 42.4249C754.225 43.6503 751.896 46.4142 750.727 48.5657C749.557 50.7181 748.4 54.1666 748.155 56.2298C747.909 58.3045 748.14 61.7706 748.672 63.9846C749.299 66.5992 750.571 69.028 752.34 70.9853C753.829 72.6334 757.087 75.012 759.58 76.2709C762.074 77.5291 768.765 79.7621 774.452 81.2321C780.137 82.7027 786.207 84.5717 787.939 85.3866C789.672 86.2008 792.046 87.8657 793.215 89.0858C794.771 90.7096 795.436 92.2998 795.698 95.0218C795.94 97.5488 795.662 99.4986 794.828 101.111C794.154 102.415 792.487 104.306 791.126 105.313C789.764 106.32 787.964 107.4 787.126 107.712C786.289 108.025 783.457 108.556 780.833 108.895C778.209 109.232 773.725 109.215 770.868 108.856C768.012 108.498 763.818 107.505 761.549 106.65C759.28 105.796 755.644 103.743 753.471 102.09L749.517 99.0835L747.451 102.61L745.385 106.135L747.976 108.335C749.402 109.544 752.472 111.506 754.797 112.694C757.123 113.883 760.893 115.384 763.175 116.031C765.458 116.678 769.4 117.429 771.937 117.701C774.473 117.973 779.1 117.8 782.219 117.317C785.337 116.835 789.773 115.58 792.077 114.529C794.381 113.478 797.422 111.523 798.834 110.184C800.247 108.845 802.214 106.036 803.206 103.942C804.485 101.241 805.007 98.8055 805 95.5641C804.995 92.7324 804.453 89.836 803.577 87.948C802.8 86.2724 801.008 83.8116 799.595 82.4788C798.183 81.1468 795.289 79.1887 793.164 78.1277C791.04 77.0668 784.757 74.9579 779.202 73.44C773.647 71.9221 767.845 70.1628 766.309 69.5291C764.773 68.8955 762.414 67.5451 761.066 66.5276C759.606 65.4263 758.257 63.485 757.73 61.7256C757.235 60.0714 757.075 57.5482 757.368 55.9884C757.664 54.4081 759.062 51.9069 760.598 50.207C762.468 48.1362 764.498 46.8559 767.167 46.0638C769.29 45.4332 773.451 44.9252 776.412 44.9351C779.372 44.9458 783.337 45.3091 785.222 45.7432C787.107 46.1773 790.957 47.7082 793.778 49.1453L798.907 51.7584L800.496 48.6442C801.369 46.9321 801.905 45.0631 801.685 44.4911C801.465 43.9191 799.216 42.4058 796.687 41.1294C794.157 39.8521 790.128 38.2969 787.733 37.6732C785.284 37.0357 780.366 36.5688 776.494 36.6069C772.708 36.645 768.067 37.1172 766.182 37.6579ZM78.2252 75.9526C77.9944 77.9427 78.0569 79.8322 78.3646 80.1513C78.6723 80.4712 90.7256 80.6426 105.15 80.5321L131.839 80.3501V76.1612V72.3349H105.241H78.6441L78.2252 75.9526ZM444.782 76.5238V80.7126H471.438H498.094V76.5238V72.3349H471.438H444.782V76.5238ZM680.12 76.5238V80.7324L706.586 80.5321L733.052 80.3318V76.5238V72.7157L706.586 72.5154L680.12 72.3151V76.5238ZM78.328 112.307C78.328 114.242 78.328 116.662 78.328 117.27C79.3174 117.27 87.8101 117.27 105.166 117.27H131.759V113.081V108.892H105.179H78.328V112.307ZM444.782 113.081V117.27H471.438H498.094V113.081V108.892H471.438H444.782V113.081ZM680.12 113.091V117.29L706.586 117.09L733.052 116.889L733.282 112.891L733.513 108.892H706.816H680.12V113.091Z"/>
</mask>
<path fill-rule="evenodd" clip-rule="evenodd" d="M201.163 16.1713C195.981 25.07 184.931 44.0517 176.609 58.3532C168.286 72.6555 161.262 84.919 160.997 85.606C160.567 86.7279 161.433 86.8337 169.46 86.6403L178.402 86.4247L183.903 76.9046C186.93 71.6685 194.111 59.3304 199.863 49.4865C205.615 39.6427 210.59 31.3099 210.921 30.9687C211.251 30.6275 214.181 34.9116 217.433 40.4888C220.684 46.0661 227.369 57.4835 232.289 65.8612C237.209 74.2389 243.829 85.6319 247.002 91.1795L252.769 101.265L202.037 101.461L151.306 101.657L147.291 108.511C145.082 112.281 143.254 115.623 143.229 115.937C143.204 116.251 173.857 116.508 211.347 116.508C257.369 116.508 279.512 116.255 279.512 115.728C279.512 115.299 278.181 112.815 276.555 110.206C274.928 107.598 269.231 97.9251 263.894 88.7096C258.557 79.4941 251.557 67.4987 248.338 62.0531C245.12 56.6076 240.3 48.3822 237.629 43.7744C234.958 39.1667 229.37 29.5704 225.212 22.4493C221.053 15.3282 216.403 7.36556 214.88 4.75475C213.356 2.1447 211.766 0.00457183 211.347 2.15095e-06C210.929 -0.00456752 206.346 7.27264 201.163 16.1713ZM0.571209 36.958C0.257425 37.2863 0 39.1682 0 41.1408C0 44.5475 0.118811 44.7501 2.38004 45.2025C3.68925 45.4645 11.8522 45.6785 20.5201 45.6785C32.5665 45.6785 37.2215 45.958 40.2725 46.8635C42.5802 47.549 45.5513 49.2116 47.3144 50.8049C48.9922 52.3205 50.9305 54.6152 51.6213 55.9031C52.5071 57.5535 52.878 60.1567 52.878 64.7188C52.878 69.3479 52.5109 71.8787 51.5886 73.5992C50.8787 74.9229 49.025 77.0554 47.469 78.3379C45.913 79.6205 43.0783 81.2473 41.1697 81.9518C38.3784 82.983 34.0144 83.3006 18.8499 83.5732L0 83.9129V100.591V117.27H4.55063H9.10127L9.31071 104.894L9.52015 92.5176L23.9908 92.0789C31.9984 91.8367 39.9862 91.2069 41.8757 90.6692C43.7539 90.1345 46.8384 88.9099 48.7302 87.9464C50.6221 86.9838 53.5025 84.8764 55.1308 83.264C56.7592 81.6509 58.9107 78.5664 59.913 76.408C60.9145 74.2496 61.9412 70.2686 62.194 67.5619C62.4713 64.5863 62.2717 61.0166 61.6876 58.5383C61.1567 56.2824 60.0813 53.1613 59.2976 51.6023C58.5139 50.0433 56.8704 47.6251 55.6457 46.2299C54.4203 44.8346 51.6465 42.7287 49.4812 41.5498C47.3159 40.3716 43.779 38.91 41.6221 38.3015C38.9359 37.5444 31.9382 37.0646 19.4211 36.7783C9.36783 36.549 0.884994 36.6298 0.571209 36.958ZM78.4461 40.3655C78.4461 42.2695 78.4461 44.1735 78.4461 44.9351C78.4461 44.9351 88.9213 45.2977 105.33 45.2977H131.378V41.1088V36.9199L104.99 36.7196L78.4461 36.5574V40.3655ZM292.967 37.0471C292.688 37.3259 292.459 55.4903 292.459 77.4126V117.27H297.029H301.598L301.694 109.654C301.746 105.465 301.832 100.673 301.884 99.0058C301.971 96.229 302.62 95.3303 309.585 88.3394C313.768 84.1407 317.434 80.7926 317.732 80.8992C318.03 81.0059 322.774 86.2343 328.273 92.5176C333.773 98.8009 340.875 106.956 344.055 110.64L349.839 117.339L354.081 117.114C357.278 116.945 358.382 116.584 358.559 115.651C358.696 114.932 353.602 108.377 346.428 100.038C339.626 92.1315 331.709 82.9853 328.834 79.7119L323.608 73.7599L340.021 56.7706C349.048 47.4264 356.435 39.4066 356.435 38.9489C356.435 38.4904 355.772 37.7615 354.962 37.3274C354.151 36.894 352.234 36.5391 350.7 36.5391C348.07 36.5391 347.015 37.4614 332.19 52.7234C323.544 61.6251 313.39 72.0912 309.626 75.983C303.965 81.8352 302.689 82.8223 302.244 81.6951C301.948 80.9449 301.682 70.4788 301.652 58.4355L301.598 36.5391H297.537C295.302 36.5391 293.246 36.7676 292.967 37.0471ZM389.964 37.76C387.671 38.3761 384.415 39.6945 382.728 40.6884C381.043 41.6823 378.74 43.469 377.61 44.6587C376.481 45.8475 374.81 48.5094 373.898 50.5734C372.786 53.0859 372.238 55.8536 372.239 58.9511C372.24 62.1666 372.765 64.6929 373.962 67.2397C375.012 69.4697 377.013 71.9168 379.082 73.4956C380.949 74.9221 384.298 76.7705 386.524 77.603C388.748 78.4354 394.627 80.178 399.587 81.4765C404.547 82.7743 410.396 84.6966 412.585 85.7492C414.774 86.801 417.231 88.507 418.044 89.5405C418.857 90.574 419.754 92.7903 420.037 94.4651C420.439 96.8466 420.162 98.2952 418.767 101.107C417.522 103.617 416.044 105.216 413.878 106.402C412.169 107.336 408.509 108.42 405.742 108.812C402.773 109.233 398.558 109.254 395.456 108.864C392.565 108.502 388.246 107.473 385.857 106.58C383.47 105.686 379.951 103.761 378.039 102.301C376.127 100.842 374.168 99.8055 373.686 99.9974C373.204 100.19 372.131 101.63 371.302 103.198L369.795 106.048L372.818 108.661C374.48 110.098 378.02 112.314 380.684 113.585C383.348 114.856 388.32 116.4 391.735 117.016C395.69 117.73 399.933 117.969 403.428 117.674C406.444 117.421 410.771 116.574 413.043 115.792C415.315 115.01 418.527 113.476 420.181 112.38C421.835 111.286 423.881 109.454 424.728 108.308C425.575 107.163 426.9 105.027 427.674 103.561C428.647 101.718 429.088 99.2427 429.104 95.5389C429.123 91.0652 428.786 89.6029 427.064 86.6646C425.93 84.7294 423.557 82.0835 421.791 80.7842C420.024 79.4849 416.701 77.7195 414.405 76.8604C412.111 76.0021 406.474 74.277 401.881 73.0287C397.287 71.7797 391.864 70.0409 389.828 69.1651C387.792 68.2892 385.101 66.405 383.847 64.977C381.937 62.801 381.568 61.7355 381.568 58.3951C381.568 55.4149 382.041 53.7135 383.444 51.6487C384.527 50.0555 386.857 48.1438 388.955 47.1286C391.624 45.8361 394.331 45.2855 399.149 45.0555C403.83 44.8316 406.995 45.1103 410.203 46.0296C412.675 46.7379 416.532 48.3418 418.773 49.5939C421.015 50.8468 422.943 51.763 423.059 51.6312C423.175 51.4987 424.035 49.8719 424.972 48.0159C426.624 44.7409 426.632 44.6092 425.256 43.5498C424.475 42.9496 422.124 41.6572 420.029 40.677C417.935 39.6975 414.178 38.3655 411.682 37.7173C409.185 37.0692 404.217 36.562 400.639 36.5894C397.061 36.6168 392.258 37.1438 389.964 37.76ZM445.3 37.0372C445.015 37.3221 444.782 39.2109 444.782 41.236V44.9169L456.015 44.9306C462.194 44.9374 469.543 45.1514 472.347 45.405C475.151 45.6594 482.108 45.6168 487.807 45.3121L498.168 44.7569L497.941 40.8384L497.714 36.9199L471.766 36.7196C457.494 36.6092 445.584 36.7524 445.3 37.0372ZM519.229 36.958C518.915 37.2863 518.658 39.2109 518.658 41.236C518.658 44.5429 518.832 44.9176 520.372 44.9268C521.314 44.9321 529.454 45.1324 538.46 45.3715C549.163 45.6564 556.231 46.191 558.864 46.9161C561.368 47.6046 564.081 49.0943 566.029 50.8498C567.752 52.4035 569.787 55.0463 570.55 56.7218C571.346 58.4705 571.943 61.5528 571.95 63.9572C571.956 66.261 571.587 69.5169 571.129 71.1925C570.597 73.1369 569.014 75.4811 566.754 77.6723C564.806 79.5603 561.841 81.5778 560.166 82.1551C558.02 82.8947 551.428 83.3097 537.874 83.558L518.629 83.9114L518.834 100.4L519.039 116.889L523.418 117.118L527.797 117.346V107.122C527.797 101.498 528.011 95.8261 528.273 94.5169L528.749 92.1368L542.173 92.1422L555.596 92.1475L564.444 104.518L573.292 116.889H577.381C580.649 116.889 581.521 116.625 581.723 115.575C581.864 114.844 578.694 109.604 574.579 103.77C570.51 97.9997 566.509 92.5321 565.685 91.6189L564.19 89.9586L568.431 87.5649C570.764 86.248 573.748 83.9457 575.062 82.4491C576.377 80.9518 578.181 78.1498 579.071 76.2214C580.406 73.3334 580.686 71.3075 580.662 64.7188C580.64 58.2435 580.327 56.0455 579.021 53.1651C578.135 51.2093 576.129 48.1918 574.563 46.4591C572.998 44.7265 570.318 42.498 568.608 41.5056C566.897 40.514 563.441 39.1393 560.927 38.4508C557.55 37.5262 551.59 37.0905 538.079 36.7806C528.026 36.5498 519.544 36.6298 519.229 36.958ZM591.011 37.7295C591.011 38.3243 594.055 45.5825 597.774 53.8589C601.494 62.1361 608.218 77.1331 612.715 87.1863C617.212 97.2396 622.099 108.122 623.575 111.368L626.257 117.27H630.246H634.236L635.885 113.437C636.791 111.329 642.873 97.7057 649.399 83.1627C655.926 68.6205 663.105 52.4835 665.351 47.3022C667.598 42.1217 669.249 37.581 669.021 37.2109C668.792 36.8415 666.955 36.5391 664.936 36.5391C662.904 36.5391 660.909 36.9694 660.466 37.5041C660.025 38.0342 657.034 44.2893 653.818 51.4035C650.604 58.517 646.79 67.0798 645.345 70.4309C643.901 73.782 639.938 82.6342 636.54 90.1025C631.936 100.222 630.19 103.374 629.688 102.476C629.317 101.814 624.897 92.1048 619.866 80.9007C614.834 69.6967 608.438 55.389 605.652 49.1057C602.866 42.8224 600.252 37.4492 599.841 37.1644C599.43 36.8803 597.275 36.648 595.053 36.648C592.069 36.648 591.011 36.9314 591.011 37.7295ZM679.942 40.1469C679.76 42.1423 679.907 44.1118 680.271 44.5239C680.668 44.9732 690.385 45.3898 704.506 45.5627C717.471 45.7219 729.3 45.6229 730.794 45.3426L733.51 44.8331L733.28 40.8765L733.052 36.9199L706.664 36.7196L680.274 36.5193L679.942 40.1469ZM766.182 37.6579C764.297 38.1979 761.898 38.99 760.851 39.418C759.804 39.846 757.576 41.1987 755.9 42.4249C754.225 43.6503 751.896 46.4142 750.727 48.5657C749.557 50.7181 748.4 54.1666 748.155 56.2298C747.909 58.3045 748.14 61.7706 748.672 63.9846C749.299 66.5992 750.571 69.028 752.34 70.9853C753.829 72.6334 757.087 75.012 759.58 76.2709C762.074 77.5291 768.765 79.7621 774.452 81.2321C780.137 82.7027 786.207 84.5717 787.939 85.3866C789.672 86.2008 792.046 87.8657 793.215 89.0858C794.771 90.7096 795.436 92.2998 795.698 95.0218C795.94 97.5488 795.662 99.4986 794.828 101.111C794.154 102.415 792.487 104.306 791.126 105.313C789.764 106.32 787.964 107.4 787.126 107.712C786.289 108.025 783.457 108.556 780.833 108.895C778.209 109.232 773.725 109.215 770.868 108.856C768.012 108.498 763.818 107.505 761.549 106.65C759.28 105.796 755.644 103.743 753.471 102.09L749.517 99.0835L747.451 102.61L745.385 106.135L747.976 108.335C749.402 109.544 752.472 111.506 754.797 112.694C757.123 113.883 760.893 115.384 763.175 116.031C765.458 116.678 769.4 117.429 771.937 117.701C774.473 117.973 779.1 117.8 782.219 117.317C785.337 116.835 789.773 115.58 792.077 114.529C794.381 113.478 797.422 111.523 798.834 110.184C800.247 108.845 802.214 106.036 803.206 103.942C804.485 101.241 805.007 98.8055 805 95.5641C804.995 92.7324 804.453 89.836 803.577 87.948C802.8 86.2724 801.008 83.8116 799.595 82.4788C798.183 81.1468 795.289 79.1887 793.164 78.1277C791.04 77.0668 784.757 74.9579 779.202 73.44C773.647 71.9221 767.845 70.1628 766.309 69.5291C764.773 68.8955 762.414 67.5451 761.066 66.5276C759.606 65.4263 758.257 63.485 757.73 61.7256C757.235 60.0714 757.075 57.5482 757.368 55.9884C757.664 54.4081 759.062 51.9069 760.598 50.207C762.468 48.1362 764.498 46.8559 767.167 46.0638C769.29 45.4332 773.451 44.9252 776.412 44.9351C779.372 44.9458 783.337 45.3091 785.222 45.7432C787.107 46.1773 790.957 47.7082 793.778 49.1453L798.907 51.7584L800.496 48.6442C801.369 46.9321 801.905 45.0631 801.685 44.4911C801.465 43.9191 799.216 42.4058 796.687 41.1294C794.157 39.8521 790.128 38.2969 787.733 37.6732C785.284 37.0357 780.366 36.5688 776.494 36.6069C772.708 36.645 768.067 37.1172 766.182 37.6579ZM78.2252 75.9526C77.9944 77.9427 78.0569 79.8322 78.3646 80.1513C78.6723 80.4712 90.7256 80.6426 105.15 80.5321L131.839 80.3501V76.1612V72.3349H105.241H78.6441L78.2252 75.9526ZM444.782 76.5238V80.7126H471.438H498.094V76.5238V72.3349H471.438H444.782V76.5238ZM680.12 76.5238V80.7324L706.586 80.5321L733.052 80.3318V76.5238V72.7157L706.586 72.5154L680.12 72.3151V76.5238ZM78.328 112.307C78.328 114.242 78.328 116.662 78.328 117.27C79.3174 117.27 87.8101 117.27 105.166 117.27H131.759V113.081V108.892H105.179H78.328V112.307ZM444.782 113.081V117.27H471.438H498.094V113.081V108.892H471.438H444.782V113.081ZM680.12 113.091V117.29L706.586 117.09L733.052 116.889L733.282 112.891L733.513 108.892H706.816H680.12V113.091Z" fill="white" stroke="white" stroke-width="7.61612" mask="url(#path-1-inside-1_25_5131)"/>
<path d="M160.596 86.231L160.596 86.2313C160.486 86.5188 160.374 86.9389 160.679 87.2825C160.813 87.4342 160.999 87.5314 161.202 87.5998C161.407 87.6691 161.661 87.7189 161.965 87.7561C163.166 87.9028 165.424 87.8791 169.423 87.7827L178.365 87.5671L178.579 87.562L178.686 87.377L184.187 77.8568C187.214 72.6216 194.395 60.284 200.146 50.4404C203.022 45.5192 205.703 40.9761 207.706 37.6211C208.708 35.9434 209.54 34.5637 210.141 33.5825C210.442 33.0918 210.685 32.7022 210.862 32.4255C210.912 32.3464 210.957 32.2772 210.996 32.2178C211.074 32.295 211.17 32.3999 211.284 32.5353C211.643 32.9612 212.134 33.6265 212.722 34.486C213.895 36.2018 215.435 38.6589 217.058 41.4423C220.31 47.0201 226.995 58.4378 231.915 66.8158C236.834 75.1928 243.454 86.5844 246.625 92.1302L252.069 101.649L201.99 101.842L151.259 102.038L151.041 102.039L150.931 102.226L146.916 109.081C145.81 110.968 144.799 112.749 144.061 114.099C143.692 114.774 143.39 115.343 143.178 115.765C143.072 115.976 142.986 116.153 142.926 116.291C142.896 116.359 142.87 116.422 142.85 116.477C142.835 116.52 142.81 116.593 142.804 116.669C142.786 116.885 142.942 116.999 142.972 117.02C143.019 117.052 143.064 117.068 143.083 117.075C143.127 117.089 143.173 117.098 143.208 117.104C143.282 117.116 143.382 117.127 143.501 117.137C143.741 117.156 144.094 117.175 144.55 117.194C145.463 117.231 146.808 117.267 148.536 117.301C151.995 117.37 156.997 117.431 163.171 117.483C175.519 117.587 192.556 117.651 211.302 117.651C234.313 117.651 251.356 117.588 262.646 117.458C268.291 117.394 272.501 117.312 275.301 117.214C276.699 117.165 277.751 117.112 278.456 117.054C278.806 117.025 279.081 116.994 279.273 116.96C279.366 116.944 279.457 116.923 279.533 116.895C279.568 116.882 279.624 116.859 279.678 116.819C279.724 116.785 279.847 116.678 279.847 116.489C279.847 116.366 279.805 116.226 279.765 116.111C279.721 115.982 279.657 115.829 279.58 115.656C279.425 115.311 279.203 114.87 278.933 114.366C278.393 113.357 277.649 112.076 276.833 110.766L276.833 110.766C275.21 108.165 269.516 98.4974 264.178 89.2804C258.841 80.0645 251.84 68.068 248.62 62.6211C245.402 57.1763 240.583 48.9518 237.913 44.3452C235.242 39.7369 229.653 30.1402 225.495 23.019L225.175 23.2057L225.495 23.019C221.336 15.8979 216.686 7.93528 215.163 5.32457L215.163 5.32445C214.396 4.01024 213.61 2.81049 212.959 1.93496C212.635 1.49835 212.339 1.13464 212.091 0.876203C211.968 0.747774 211.849 0.636451 211.738 0.554218C211.682 0.513016 211.621 0.47351 211.556 0.442945C211.495 0.41387 211.408 0.38205 211.306 0.380937C211.173 0.379489 211.075 0.442116 211.041 0.464432C210.993 0.496059 210.949 0.534163 210.912 0.569383C210.837 0.640989 210.752 0.737652 210.661 0.85009C210.476 1.07731 210.236 1.40531 209.95 1.81807C209.375 2.64563 208.598 3.83849 207.674 5.30573C205.825 8.24149 203.381 12.2894 200.788 16.7414L201.112 16.9298L200.788 16.7414C195.606 25.6401 184.556 44.6218 176.234 58.9234C172.072 66.0751 168.235 72.7173 165.405 77.6578C163.99 80.1279 162.826 82.1733 162 83.6444C161.587 84.3798 161.257 84.9728 161.022 85.404C160.796 85.8201 160.641 86.1154 160.596 86.231Z" fill="#48849E" stroke="#48849E" stroke-width="0.761612"/>
</svg>
